<!-- sprite.svg -->
<svg
  xmlns="http://www.w3.org/2000/svg"
  xmlns:xlink="http://www.w3.org/1999/xlink"
>
  <defs>
    <symbol viewBox="0 0 16 16" id="phone-call">
      <path
        d="M9.43281 4.29322C9.99393 4.4025 10.5096 4.67643 10.9139 5.07995C11.3181 5.48347 11.5926 5.99822 11.702 6.55832M9.43281 1.99945C10.5986 2.12873 11.6857 2.64984 12.5157 3.47722C13.3456 4.3046 13.869 5.38908 14 6.55259M13.4255 11.1287V12.849C13.4262 13.0087 13.3934 13.1668 13.3293 13.3131C13.2652 13.4594 13.1712 13.5908 13.0533 13.6988C12.9354 13.8067 12.7962 13.8889 12.6446 13.9401C12.4931 13.9912 12.3325 14.0103 12.1731 13.9959C10.4053 13.8041 8.70723 13.2012 7.21528 12.2354C5.82722 11.355 4.65038 10.1803 3.76835 8.79475C2.79745 7.29875 2.19324 5.59551 2.00466 3.823C1.99031 3.66442 2.00919 3.5046 2.0601 3.35371C2.11102 3.20281 2.19285 3.06416 2.30039 2.94656C2.40793 2.82897 2.53883 2.73501 2.68474 2.67068C2.83065 2.60635 2.98838 2.57304 3.1479 2.57289H4.87136C5.15017 2.57015 5.42046 2.6687 5.63185 2.85017C5.84325 3.03164 5.98132 3.28365 6.02034 3.55922C6.09309 4.10976 6.22799 4.65032 6.42249 5.17059C6.49978 5.37584 6.51651 5.5989 6.47069 5.81335C6.42487 6.0278 6.31842 6.22464 6.16397 6.38055L5.43436 7.10883C6.25218 8.54447 7.44304 9.73316 8.8813 10.5495L9.6109 9.82121C9.7671 9.66703 9.9643 9.56078 10.1791 9.51505C10.394 9.46931 10.6174 9.48601 10.8231 9.56316C11.3443 9.7573 11.8858 9.89196 12.4374 9.96457C12.7165 10.0039 12.9713 10.1442 13.1535 10.3588C13.3357 10.5734 13.4325 10.8474 13.4255 11.1287Z"
        stroke="currentColor"
        stroke-linecap="round"
        stroke-linejoin="round"
      />
    </symbol>
    <symbol viewBox="0 0 16 16" id="minus">
      <path
        fill-rule="evenodd"
        clip-rule="evenodd"
        d="M2.66663 7.75C2.66663 7.33579 3.00241 7 3.41663 7H12.5833C12.9975 7 13.3333 7.33579 13.3333 7.75C13.3333 8.16421 12.9975 8.5 12.5833 8.5H3.41663C3.00241 8.5 2.66663 8.16421 2.66663 7.75Z"
        fill="currentColor"
      />
    </symbol>
    <symbol
      viewBox="0 0 14 14"
      fill="none"
      xmlns="http://www.w3.org/2000/svg"
      id="plus"
    >
      <path
        d="M7.15935 1.66666L7.15935 12.3333M12.3333 7.15938L1.66663 7.15938"
        stroke="currentColor"
        stroke-width="1.5"
        stroke-linecap="round"
      />
    </symbol>

    <symbol viewBox="0 0 28 28" fill="none" id="close-circle">
      <path
        d="M18.3016 10.7592C18.5945 10.4663 18.5945 9.99145 18.3016 9.69855C18.0087 9.40566 17.5339 9.40566 17.241 9.69855L14.0001 12.9395L10.7592 9.69855C10.4663 9.40566 9.99139 9.40566 9.6985 9.69855C9.4056 9.99145 9.4056 10.4663 9.6985 10.7592L12.9394 14.0001L9.69849 17.241C9.4056 17.5339 9.4056 18.0088 9.69849 18.3017C9.99139 18.5946 10.4663 18.5946 10.7592 18.3017L14.0001 15.0608L17.241 18.3017C17.5339 18.5946 18.0087 18.5946 18.3016 18.3017C18.5945 18.0088 18.5945 17.5339 18.3016 17.241L15.0607 14.0001L18.3016 10.7592ZM26.5834 14C26.5834 20.9496 20.9497 26.5833 14.0001 26.5833C7.0505 26.5833 1.41675 20.9496 1.41675 14C1.41675 7.0504 7.0505 1.41665 14.0001 1.41665C20.9497 1.41665 26.5834 7.0504 26.5834 14Z"
        stroke="currentColor"
        stroke-width="1.5"
        stroke-linecap="round"
      />
    </symbol>

    <symbol viewBox="0 0 18 22" id="user">
      <path
        d="M13.3354 10.4116L13.2595 10.3636L13.2036 10.4339C12.9324 10.775 12.631 11.0852 12.2816 11.369L12.1685 11.4609L12.2949 11.5334C14.2862 12.6756 15.6249 14.8198 15.6249 17.2744C15.6249 17.5712 15.4628 17.864 15.1402 18.1411C14.8175 18.4182 14.3437 18.6708 13.7463 18.8842C12.5523 19.3108 10.8864 19.573 9.01327 19.573C7.14012 19.573 5.47421 19.3108 4.28022 18.8842C3.68282 18.6708 3.20899 18.4182 2.88637 18.1411C2.56371 17.864 2.40159 17.5712 2.40159 17.2744C2.40159 14.8199 3.7447 12.6757 5.7317 11.5333L5.85787 11.4608L5.74492 11.369C5.39554 11.0852 5.0941 10.775 4.82291 10.4339L4.76705 10.3636L4.69117 10.4116C2.41597 11.8504 0.900122 14.3868 0.900122 17.2744C0.900122 17.7246 1.02357 18.2634 1.43875 18.7956C1.85304 19.3267 2.55249 19.8446 3.69289 20.2643L3.69297 20.2644C5.11055 20.7847 7.00178 21.0745 9.01327 21.0745C11.0246 21.0745 12.9115 20.7892 14.3337 20.2643C15.4719 19.8445 16.1713 19.3267 16.5861 18.7957C17.0018 18.2635 17.1264 17.7248 17.1264 17.2744C17.1264 14.3868 15.6106 11.8504 13.3354 10.4116Z"
        fill="currentColor"
        stroke="currentColor"
        stroke-width="0.2"
      />
      <path
        d="M9.01772 11.4534C11.613 11.4534 13.5862 8.95131 13.5862 6.02759C13.5862 3.10387 11.613 0.601782 9.01772 0.601782C6.42248 0.601782 4.44919 3.10387 4.44919 6.02759C4.44919 8.95131 6.42248 11.4534 9.01772 11.4534ZM9.01772 2.09881C10.6872 2.09881 12.0892 3.83833 12.0892 6.02759C12.0892 8.21696 10.6916 9.95637 9.01772 9.95637C7.34385 9.95637 5.94622 8.21696 5.94622 6.02759C5.94622 3.83823 7.34385 2.09881 9.01772 2.09881Z"
        fill="currentColor"
        stroke="currentColor"
        stroke-width="0.2"
      />
    </symbol>
    <symbol viewBox="0 0 22 22" fill="none" id="cart">
      <path
        d="M8.07389 17C6.96937 17 6.07397 17.8956 6.07397 19.0002C6.07414 20.1047 6.96953 21 8.07406 21C9.17858 21 10.074 20.1046 10.074 19C10.0726 17.8959 9.17791 17.0012 8.07389 17V17ZM8.07389 20.1315C7.44903 20.1315 6.9424 19.6249 6.9424 18.9998C6.94257 18.3749 7.44903 17.8685 8.07406 17.8685C8.69892 17.8685 9.20555 18.3751 9.20555 19C9.2047 19.6247 8.69858 20.1309 8.07389 20.1315Z"
        fill="currentColor"
        stroke="currentColor"
        stroke-width="0.3"
      />
      <path
        d="M16.7422 17C15.6376 17 14.7422 17.8954 14.7422 19C14.7422 20.1046 15.6376 21 16.7422 21C17.8468 21 18.7422 20.1046 18.7422 19C18.7408 17.8959 17.8462 17.0014 16.7422 17V17ZM16.7422 20.1315C16.1171 20.1315 15.6106 19.6249 15.6106 19C15.6106 18.3749 16.1173 17.8685 16.7422 17.8685C17.3671 17.8685 17.8737 18.3751 17.8737 19C17.873 19.6247 17.3667 20.1309 16.7422 20.1315V20.1315Z"
        fill="currentColor"
        stroke="currentColor"
        stroke-width="0.3"
      />
      <path
        d="M20.522 4.88951H5.52822L5.20303 2.98252C5.01045 1.83631 4.01302 0.997587 2.84618 1.00001H1.47817C1.21406 1.00001 1 1.21317 1 1.4762C1 1.73922 1.21406 1.95239 1.47817 1.95239H2.84599C3.54625 1.9509 4.14471 2.45425 4.26032 3.14193L5.99163 13.2997C6.18439 14.4461 7.18201 15.285 8.34904 15.2822H18.5422C18.8062 15.2822 19.0204 15.069 19.0204 14.806C19.0204 14.543 18.8062 14.3298 18.5422 14.3298H8.34885C7.64878 14.3315 7.05033 13.8281 6.93471 13.1404L6.76062 12.119H16.7555C18.003 12.1218 19.1086 11.3188 19.4872 10.135L20.9772 5.51116C21.0239 5.36626 20.9983 5.20797 20.9082 5.08501C20.8182 4.96206 20.6748 4.88951 20.522 4.88951V4.88951ZM18.5766 9.84412C18.3241 10.6334 17.587 11.1685 16.7553 11.1667H6.59831L5.69053 5.84189H19.8662L18.5766 9.84412Z"
        fill="currentColor"
        stroke="currentColor"
        stroke-width="0.3"
      />
    </symbol>
    <symbol viewBox="0 0 16 16" fill="none" id="search">
      <path
        fill-rule="evenodd"
        clip-rule="evenodd"
        d="M6.44283 0.0987565C7.64191 0.0986072 8.81649 0.43823 9.83046 1.07827C10.8444 1.71831 11.6563 2.63257 12.172 3.7151C12.6876 4.79764 12.886 6.00413 12.7441 7.19479C12.6022 8.38544 12.1258 9.51151 11.3701 10.4425L11.3133 10.5125L15.7332 14.9325C15.8349 15.0335 15.8945 15.1692 15.9001 15.3124C15.9057 15.4556 15.8568 15.5956 15.7634 15.7042C15.6699 15.8128 15.5387 15.882 15.3963 15.8978C15.2551 15.9134 15.1132 15.8755 14.9987 15.7915L14.9296 15.7315L10.5115 11.3143L10.4415 11.3711C9.65289 12.0109 8.72218 12.4521 7.72762 12.6576C6.73306 12.8631 5.7037 12.8269 4.72606 12.5519C3.74842 12.277 2.85105 11.7714 2.10938 11.0776C1.3677 10.3839 0.803391 9.52224 0.463863 8.56511C0.124335 7.60798 0.0195125 6.58334 0.158205 5.57728C0.296898 4.57123 0.675053 3.61317 1.26089 2.78361C1.84673 1.95405 2.62313 1.27723 3.52486 0.810036C4.42658 0.342839 5.42727 0.0989123 6.44283 0.0987565ZM6.44282 1.23219C5.75842 1.23219 5.08072 1.36699 4.44842 1.6289C3.81612 1.89081 3.24159 2.27469 2.75765 2.75864C2.2737 3.24258 1.88982 3.8171 1.62791 4.44941C1.366 5.08171 1.2312 5.75941 1.2312 6.44381C1.2312 7.12821 1.366 7.80591 1.62791 8.43821C1.88982 9.07051 2.2737 9.64504 2.75765 10.129C3.24159 10.6129 3.81612 10.9968 4.44842 11.2587C5.08072 11.5206 5.75842 11.6554 6.44282 11.6554C7.82503 11.6554 9.15062 11.1063 10.128 10.129C11.1054 9.15161 11.6544 7.82602 11.6544 6.44381C11.6544 5.0616 11.1054 3.736 10.128 2.75864C9.15062 1.78127 7.82503 1.23219 6.44282 1.23219Z"
        fill="currentColor"
      />
      <path
        fill-rule="evenodd"
        clip-rule="evenodd"
        d="M14.9339 15.8661L14.8597 15.8015L10.5046 11.4471L10.5038 11.4478C9.70285 12.0976 8.75766 12.5457 7.74761 12.7544C6.73757 12.963 5.69219 12.9262 4.69933 12.647C3.70647 12.3678 2.79514 11.8543 2.04192 11.1498C1.2887 10.4452 0.715603 9.57017 0.37079 8.59814C0.0259766 7.62611 -0.0804774 6.58552 0.0603742 5.56381C0.201226 4.54209 0.585267 3.56912 1.18022 2.72665C1.77518 1.88417 2.56367 1.19682 3.47943 0.722351C4.39519 0.247882 5.41145 0.000158267 6.44283 4.995e-08C7.66057 -0.000151545 8.85344 0.344758 9.88319 0.994762C10.9129 1.64477 11.7374 2.57325 12.2611 3.67264C12.7848 4.77202 12.9863 5.9973 12.8422 7.20648C12.698 8.41567 12.2142 9.55927 11.4468 10.5048L11.4461 10.5056L15.8029 14.8624M11.3133 10.5125L11.3701 10.4425C12.1258 9.51151 12.6022 8.38544 12.7441 7.19479C12.886 6.00413 12.6876 4.79764 12.172 3.7151C11.6563 2.63257 10.8444 1.71831 9.83046 1.07827C8.81649 0.43823 7.64191 0.0986072 6.44283 0.0987565C5.42727 0.0989123 4.42658 0.342839 3.52486 0.810036C2.62313 1.27723 1.84673 1.95405 1.26089 2.78361C0.675053 3.61317 0.296898 4.57123 0.158205 5.57728C0.0195125 6.58334 0.124335 7.60798 0.463863 8.56511C0.803391 9.52224 1.3677 10.3839 2.10938 11.0776C2.85105 11.7714 3.74842 12.277 4.72606 12.5519C5.7037 12.8269 6.73306 12.8631 7.72762 12.6576C8.72218 12.4521 9.65289 12.0109 10.4415 11.3711L10.5115 11.3143L14.9296 15.7315L14.9987 15.7915C15.1132 15.8755 15.2551 15.9134 15.3963 15.8978C15.5387 15.882 15.6699 15.8128 15.7634 15.7042C15.8568 15.5956 15.9057 15.4556 15.9001 15.3124C15.8945 15.1692 15.8349 15.0335 15.7332 14.9325L11.3133 10.5125ZM14.9339 15.8661L14.9403 15.8712L14.9339 15.8661ZM15.8029 14.8624C15.9221 14.981 15.9923 15.1405 15.9988 15.3086C16.0054 15.4767 15.948 15.6411 15.8382 15.7686C15.7285 15.8962 15.5745 15.9774 15.4072 15.9959C15.2414 16.0143 15.0748 15.9698 14.9403 15.8712M6.44283 1.33096C5.7714 1.33096 5.10654 1.46321 4.48622 1.72015C3.8659 1.9771 3.30227 2.35371 2.82749 2.82848C2.35272 3.30325 1.97611 3.86689 1.71917 4.48721C1.46222 5.10753 1.32997 5.77239 1.32997 6.44382C1.32997 7.11525 1.46222 7.7801 1.71917 8.40042C1.97611 9.02074 2.35272 9.58438 2.8275 10.0592C3.30227 10.5339 3.8659 10.9105 4.48622 11.1675C5.10654 11.4244 5.7714 11.5567 6.44283 11.5567C7.79884 11.5567 9.09932 11.018 10.0582 10.0592C11.017 9.10031 11.5557 7.79983 11.5557 6.44382C11.5557 5.0878 11.017 3.78733 10.0582 2.82848C9.09932 1.86964 7.79884 1.33096 6.44283 1.33096ZM4.44842 1.6289C5.08072 1.36699 5.75842 1.23219 6.44282 1.23219C7.82503 1.23219 9.15062 1.78127 10.128 2.75864C11.1054 3.736 11.6544 5.0616 11.6544 6.44381C11.6544 7.82602 11.1054 9.15161 10.128 10.129C9.15062 11.1063 7.82503 11.6554 6.44282 11.6554C5.75842 11.6554 5.08072 11.5206 4.44842 11.2587C3.81612 10.9968 3.24159 10.6129 2.75765 10.129C2.2737 9.64504 1.88982 9.07051 1.62791 8.43821C1.366 7.80591 1.2312 7.12821 1.2312 6.44381C1.2312 5.75941 1.366 5.08171 1.62791 4.44941C1.88982 3.8171 2.2737 3.24258 2.75765 2.75864C3.24159 2.27469 3.81612 1.89081 4.44842 1.6289Z"
        fill="currentColor"
      />
    </symbol>
    <symbol viewBox="0 0 72 32" fill="none" id="logo-header">
      <path
        d="M5.58308 23.6177C5.68165 24.0129 6.03663 24.2902 6.44393 24.2902H11.2078C11.6257 24.2902 11.9869 23.9986 12.075 23.5901L15.7835 6.39652C15.7875 6.37802 15.8039 6.36482 15.8228 6.36482C15.8418 6.36482 15.8582 6.3781 15.8621 6.39666L19.5076 23.5871C19.5946 23.997 19.9565 24.2902 20.3756 24.2902H25.1684C25.5761 24.2902 25.9314 24.0123 26.0295 23.6166L31.3078 2.33479C31.4465 1.77523 31.0231 1.234 30.4466 1.234H27.4864C27.0694 1.234 26.7087 1.52438 26.6197 1.93176L22.7828 19.485C22.7787 19.5034 22.7624 19.5166 22.7434 19.5166C22.7244 19.5166 22.708 19.5033 22.7041 19.4848L18.9617 1.93617C18.8744 1.52669 18.5127 1.234 18.094 1.234H13.5517C13.133 1.234 12.7713 1.5267 12.684 1.93617L8.94169 19.4847C8.93773 19.5033 8.92129 19.5166 8.90226 19.5166C8.88336 19.5166 8.86699 19.5035 8.86289 19.485L4.96294 1.92882C4.87276 1.52285 4.5127 1.234 4.09683 1.234H1.1357C0.558698 1.234 0.135211 1.77608 0.274853 2.33594L5.58308 23.6177Z"
        fill="#5D59EF"
      />
      <path
        d="M40.5438 24.8423C43.6624 24.8423 46.3014 23.4311 47.4478 21.0668C47.6517 20.6461 47.4187 20.1622 46.984 19.9901L45.3114 19.328C44.8514 19.146 44.3401 19.384 44.0682 19.7972C43.3254 20.9259 42.0664 21.5625 40.5438 21.5625C38.1959 21.5625 36.5634 20.1037 36.1835 17.723C36.1425 17.4664 36.3483 17.2435 36.6082 17.2435H46.6093C47.0011 17.2435 47.3393 16.9829 47.3695 16.5923C47.3908 16.3158 47.3993 16.0003 47.3993 15.6847C47.3993 10.489 44.4427 7.17666 39.7966 7.17666C34.988 7.17666 31.9014 10.5864 31.9014 15.8471C31.9014 21.3027 35.3129 24.8423 40.5438 24.8423ZM37.1221 14.4832C36.5913 14.4832 36.1725 14.017 36.3007 13.5018C36.777 11.5893 37.9492 10.4565 39.7966 10.4565C41.6554 10.4565 42.8283 11.7419 43.074 14.018C43.1013 14.2704 42.8977 14.4832 42.6439 14.4832H37.1221Z"
        fill="#5D59EF"
      />
      <path
        d="M50.7613 23.403C50.7613 23.893 51.1586 24.2902 51.6486 24.2902H54.1304C54.6204 24.2902 55.0176 23.893 55.0176 23.403V1.14701C55.0176 0.657014 54.6204 0.259789 54.1304 0.259789H51.6486C51.1586 0.259789 50.7613 0.657013 50.7613 1.14701V23.403Z"
        fill="#5D59EF"
      />
      <path
        d="M58.7253 23.403C58.7253 23.893 59.1225 24.2902 59.6125 24.2902H62.0943C62.5843 24.2902 62.9816 23.893 62.9816 23.403V1.14701C62.9816 0.657014 62.5843 0.259789 62.0943 0.259789H59.6125C59.1225 0.259789 58.7253 0.657013 58.7253 1.14701V23.403Z"
        fill="#5D59EF"
      />
      <path
        d="M68.9961 5.1633C70.5882 5.1633 71.6603 4.12414 71.6603 2.56541C71.6603 1.03915 70.5882 0 68.9961 0C67.4366 0 66.3644 1.03915 66.3644 2.56541C66.3644 4.12414 67.4366 5.1633 68.9961 5.1633ZM66.8517 23.403C66.8517 23.893 67.249 24.2902 67.739 24.2902H70.2208C70.7108 24.2902 71.108 23.893 71.108 23.403V8.61593C71.108 8.12593 70.7108 7.72871 70.2208 7.72871H67.739C67.249 7.72871 66.8517 8.12593 66.8517 8.61593V23.403Z"
        fill="#5D59EF"
      />
      <path
        d="M47.335 28.1691H46.4571C46.2395 28.1691 46.2117 28.1413 46.2117 27.9237V27.0457C46.2114 26.9251 46.1635 26.8095 46.0783 26.7241C45.9931 26.6388 45.8776 26.5906 45.757 26.5901H44.6346C44.5139 26.5903 44.3982 26.6384 44.313 26.7239C44.2277 26.8093 44.1798 26.925 44.1799 27.0457V28.3339C44.1846 28.4388 44.2259 28.5387 44.2965 28.6164L45.7033 30.0268C45.7356 30.0596 45.7535 30.1039 45.7533 30.15V31.0807C45.7533 31.2983 45.7264 31.3261 45.5088 31.3261H44.8781C44.6605 31.3261 44.6336 31.2983 44.6336 31.0807V30.2018C44.6336 30.081 44.5856 29.9651 44.5002 29.8796C44.4147 29.7942 44.2988 29.7462 44.178 29.7462H43.3001C43.0824 29.7462 43.0547 29.7193 43.0547 29.5008V28.871C43.0547 28.6469 43.0723 28.6266 43.2667 28.6266H43.5094C43.57 28.6266 43.6282 28.6025 43.6711 28.5596C43.714 28.5167 43.7381 28.4585 43.7381 28.3978C43.7381 28.3371 43.714 28.279 43.6711 28.2361C43.6282 28.1932 43.57 28.1691 43.5094 28.1691H43.0528C42.9927 28.1689 42.9332 28.1807 42.8776 28.2038C42.8221 28.2268 42.7717 28.2606 42.7294 28.3032C42.687 28.3459 42.6535 28.3965 42.6308 28.4521C42.6081 28.5078 42.5967 28.5674 42.5972 28.6275V29.7499C42.5979 29.8702 42.6463 29.9853 42.7317 30.07C42.8171 30.1547 42.9325 30.2021 43.0528 30.2018H43.9307C44.1484 30.2018 44.1761 30.2296 44.1761 30.4472V31.3252C44.1758 31.3855 44.1874 31.4453 44.2103 31.501C44.2332 31.5568 44.2669 31.6075 44.3096 31.6501C44.3522 31.6928 44.4029 31.7265 44.4587 31.7494C44.5145 31.7724 44.5743 31.784 44.6346 31.7836H45.757C45.8771 31.7824 45.9919 31.7339 46.0765 31.6486C46.1611 31.5633 46.2087 31.4481 46.2089 31.328V30.0722C46.2126 30.0165 46.2039 29.9607 46.1834 29.9088C46.1629 29.8569 46.1311 29.8102 46.0904 29.7721L44.6827 28.3617C44.6516 28.3275 44.6344 28.2829 44.6346 28.2367V27.3106C44.6346 27.2022 44.6281 27.1522 44.6725 27.1031C44.717 27.0541 44.7716 27.0504 44.879 27.0504H45.5097C45.6329 27.0504 45.6746 27.0624 45.7144 27.1022C45.7542 27.142 45.7551 27.2124 45.7551 27.3106V28.1737C45.7556 28.2939 45.8036 28.409 45.8886 28.494C45.9736 28.579 46.0887 28.627 46.2089 28.6275H47.0868C47.3045 28.6275 47.3323 28.6553 47.3323 28.872V29.5026C47.3323 29.7203 47.3128 29.7453 47.147 29.748H46.8775C46.8198 29.7481 46.7643 29.77 46.722 29.8094C46.6797 29.8487 46.6539 29.9025 46.6497 29.9601C46.6474 29.973 46.6474 29.9862 46.6497 29.999C46.6555 30.0552 46.6821 30.1071 46.7243 30.1447C46.7664 30.1822 46.8211 30.2026 46.8775 30.2018H47.335C47.4557 30.2018 47.5715 30.154 47.6569 30.0687C47.7423 29.9835 47.7904 29.8678 47.7907 29.7471V28.6275C47.7904 28.5068 47.7423 28.3911 47.6569 28.3059C47.5715 28.2206 47.4557 28.1728 47.335 28.1728"
        fill="#00B050"
      />
      <path
        d="M50.6226 28.7815C49.8759 28.5908 49.6932 28.5049 49.6932 28.2303V28.2188C49.6932 28.0147 49.8897 27.8526 50.2473 27.8526C50.3131 27.8528 50.3788 27.8579 50.4438 27.8679H50.4968C50.6911 27.9057 50.879 27.97 51.0549 28.0586L51.216 28.1502L51.2749 28.1807C51.3056 28.1968 51.3415 28.2009 51.3752 28.192C51.4088 28.1831 51.4377 28.162 51.4557 28.133L51.7878 27.6657C51.8023 27.6421 51.8098 27.615 51.8094 27.5875C51.8102 27.5689 51.8067 27.5503 51.7993 27.5332C51.7918 27.516 51.7805 27.5007 51.7662 27.4883C51.7562 27.4824 51.747 27.4753 51.7387 27.4673L51.6601 27.4177L51.5854 27.3719H51.5716L51.5048 27.3357L51.4714 27.3185L51.4203 27.2918C51.0604 27.1203 50.664 27.0334 50.263 27.0382C49.3808 27.0382 48.752 27.5417 48.752 28.3028V28.3142C48.752 29.1458 49.314 29.3804 50.1825 29.596C50.9036 29.7753 51.0529 29.8935 51.0529 30.1281V30.1415C51.0529 30.3856 50.8191 30.5363 50.43 30.5363C50.2555 30.5357 50.082 30.51 49.9152 30.46L49.8779 30.4467H49.8622C49.7881 30.4217 49.7159 30.3917 49.646 30.357L49.5891 30.3303C49.4824 30.2749 49.3805 30.2111 49.2845 30.1396L49.2472 30.1053C49.2164 30.0856 49.1792 30.0778 49.1428 30.0835C49.1065 30.0891 49.0736 30.1078 49.0507 30.1358L48.6911 30.5554C48.6839 30.5645 48.6773 30.574 48.6715 30.584C48.654 30.6066 48.6444 30.634 48.6439 30.6622C48.643 30.679 48.6457 30.6958 48.6518 30.7116C48.6579 30.7273 48.6672 30.7417 48.6793 30.7538L48.7245 30.7919C49.2081 31.1554 49.8027 31.352 50.4143 31.3508C51.3457 31.3508 52 30.8835 52 30.0499V30.0385C52 29.308 51.5068 29.0028 50.6246 28.7815"
        fill="#00B050"
      />
      <path
        d="M61.3115 27.0381H60.663C60.6243 27.0386 60.5873 27.0539 60.5601 27.0806C60.5329 27.1074 60.5176 27.1435 60.5176 27.1811V29.4795C60.5176 29.5158 60.5176 29.5425 60.4921 29.5501C60.4666 29.5578 60.4469 29.533 60.4292 29.5082L58.5822 27.1506C58.5561 27.1143 58.521 27.0849 58.4802 27.0652C58.4393 27.0456 58.394 27.0362 58.3484 27.0381H57.7589C57.7202 27.0386 57.6832 27.0539 57.656 27.0806C57.6288 27.1074 57.6135 27.1435 57.6135 27.1811V31.0913C57.6127 31.1101 57.6159 31.1288 57.6229 31.1463C57.6299 31.1638 57.6406 31.1796 57.6542 31.1929C57.6679 31.2062 57.6843 31.2166 57.7023 31.2234C57.7203 31.2302 57.7396 31.2333 57.7589 31.2325H58.4073C58.4267 31.2336 58.4461 31.2307 58.4643 31.224C58.4825 31.2173 58.499 31.2069 58.5127 31.1936C58.5264 31.1802 58.5371 31.1642 58.544 31.1466C58.5509 31.129 58.5539 31.1101 58.5527 31.0913V28.709C58.5493 28.6932 58.5493 28.677 58.5527 28.6613C58.5564 28.6565 58.5611 28.6527 58.5666 28.65C58.5721 28.6474 58.5781 28.646 58.5842 28.646C58.5903 28.646 58.5963 28.6474 58.6018 28.65C58.6072 28.6527 58.612 28.6565 58.6156 28.6613L58.6372 28.6861L60.553 31.1295C60.579 31.1657 60.6142 31.1949 60.6551 31.2143C60.696 31.2336 60.7414 31.2425 60.7868 31.2401H61.3056C61.3247 31.2406 61.3438 31.2373 61.3616 31.2304C61.3794 31.2235 61.3955 31.2131 61.4089 31.1998C61.4224 31.1866 61.4329 31.1708 61.4398 31.1534C61.4467 31.1361 61.4498 31.1175 61.449 31.0989V27.1811C61.4493 27.1626 61.4458 27.1442 61.4387 27.127C61.4316 27.1097 61.4211 27.094 61.4078 27.0808C61.3945 27.0675 61.3786 27.0569 61.3611 27.0495C61.3435 27.0422 61.3247 27.0383 61.3056 27.0381"
        fill="#00B050"
      />
      <path
        d="M66.1787 27.0382H65.5323C65.4933 27.0386 65.4561 27.0539 65.4286 27.0806C65.4011 27.1073 65.3854 27.1434 65.3849 27.1812V29.4796C65.3849 29.5159 65.3849 29.5426 65.3613 29.5502C65.3377 29.5578 65.3141 29.533 65.2965 29.5082L63.4495 27.1507C63.4239 27.1138 63.3889 27.0841 63.3479 27.0643C63.3069 27.0446 63.2613 27.0356 63.2156 27.0382H62.6262C62.5874 27.0387 62.5504 27.0539 62.5232 27.0807C62.496 27.1075 62.4808 27.1436 62.4808 27.1812V31.0914C62.4799 31.1101 62.4831 31.1289 62.4901 31.1463C62.4971 31.1638 62.5078 31.1797 62.5215 31.193C62.5352 31.2063 62.5515 31.2166 62.5696 31.2234C62.5876 31.2303 62.6069 31.2333 62.6262 31.2325H63.2746C63.2939 31.2333 63.3132 31.2303 63.3312 31.2234C63.3492 31.2166 63.3656 31.2063 63.3793 31.193C63.3929 31.1797 63.4036 31.1638 63.4106 31.1463C63.4176 31.1289 63.4208 31.1101 63.42 31.0914V28.709C63.4166 28.6933 63.4166 28.6771 63.42 28.6614C63.4236 28.6566 63.4284 28.6528 63.4339 28.6501C63.4393 28.6475 63.4453 28.6461 63.4514 28.6461C63.4575 28.6461 63.4635 28.6475 63.469 28.6501C63.4745 28.6528 63.4792 28.6566 63.4829 28.6614C63.4904 28.6689 63.4969 28.6772 63.5025 28.6862L65.4203 31.1295C65.4462 31.1659 65.4813 31.1952 65.5222 31.2146C65.5632 31.234 65.6086 31.2428 65.6541 31.2402H66.1708C66.1902 31.241 66.2094 31.2379 66.2275 31.2311C66.2455 31.2243 66.2618 31.2139 66.2755 31.2006C66.2892 31.1874 66.2999 31.1715 66.3069 31.154C66.3139 31.1365 66.3171 31.1178 66.3162 31.099V27.1812C66.3162 27.1436 66.301 27.1075 66.2738 27.0807C66.2466 27.0539 66.2096 27.0387 66.1708 27.0382"
        fill="#00B050"
      />
      <path
        d="M55.1851 29.5177C55.0185 29.5763 54.8414 29.6016 54.6644 29.5921C54.488 29.6027 54.3114 29.5773 54.1457 29.5177C54.1324 29.5122 54.1217 29.5022 54.1155 29.4896C54.1094 29.4769 54.1082 29.4625 54.1123 29.4491L54.629 28.2245C54.632 28.2189 54.6365 28.2142 54.6421 28.2109C54.6476 28.2077 54.654 28.2059 54.6605 28.2059C54.667 28.2059 54.6733 28.2077 54.6789 28.2109C54.6844 28.2142 54.6889 28.2189 54.6919 28.2245L55.2067 29.4395C55.2112 29.4536 55.2106 29.4687 55.2048 29.4822C55.1991 29.4958 55.1886 29.507 55.1753 29.5139M55.1576 27.164C55.1415 27.1261 55.1143 27.0936 55.0794 27.0706C55.0444 27.0475 55.0033 27.0349 54.9611 27.0343H54.3716C54.3295 27.0352 54.2885 27.0479 54.2536 27.0709C54.2187 27.0939 54.1915 27.1263 54.1751 27.164L52.4578 31.1047C52.4498 31.1187 52.446 31.1346 52.4466 31.1506C52.4473 31.1667 52.4524 31.1822 52.4616 31.1956C52.4707 31.2089 52.4834 31.2196 52.4983 31.2265C52.5132 31.2333 52.5298 31.2361 52.5462 31.2344H53.2202C53.263 31.2366 53.3055 31.2251 53.3409 31.2017C53.3764 31.1782 53.403 31.1442 53.4167 31.1047L53.7173 30.3856C53.7468 30.315 53.7782 30.3055 53.8549 30.3284C54.1174 30.3974 54.3885 30.4308 54.6605 30.4276C54.9301 30.4359 55.1996 30.4057 55.4602 30.3379C55.5368 30.3189 55.5761 30.315 55.6056 30.3856L55.9062 31.1047C55.9199 31.1442 55.9465 31.1782 55.982 31.2017C56.0175 31.2251 56.0599 31.2366 56.1027 31.2344H56.8002C56.8169 31.2368 56.8339 31.2346 56.8492 31.2279C56.8646 31.2213 56.8777 31.2105 56.887 31.1969C56.8963 31.1833 56.9014 31.1674 56.9017 31.151C56.902 31.1347 56.8974 31.1186 56.8887 31.1047L55.1576 27.164Z"
        fill="#00B050"
      />
      <path
        d="M69.9277 29.5177C69.7617 29.5761 69.5853 29.6014 69.409 29.5921C69.2346 29.601 69.0602 29.5757 68.8961 29.5177C68.883 29.5119 68.8724 29.502 68.8659 29.4895C68.8595 29.477 68.8577 29.4627 68.8608 29.449L69.3795 28.2245V28.213C69.3825 28.2074 69.387 28.2027 69.3925 28.1995C69.3981 28.1962 69.4044 28.1944 69.4109 28.1944C69.4174 28.1944 69.4238 28.1962 69.4293 28.1995C69.4349 28.2027 69.4394 28.2074 69.4424 28.213L69.9552 29.4281C69.9611 29.442 69.9611 29.4576 69.9552 29.4715C69.9493 29.4854 69.938 29.4966 69.9238 29.5025M69.91 27.1525C69.8931 27.1152 69.8657 27.0832 69.8309 27.0603C69.7962 27.0374 69.7555 27.0244 69.7135 27.0228H69.1241C69.0819 27.0237 69.0409 27.0364 69.006 27.0594C68.9711 27.0824 68.9439 27.1148 68.9276 27.1525L67.2004 31.0894C67.1924 31.1034 67.1886 31.1193 67.1892 31.1353C67.1899 31.1514 67.195 31.1669 67.2042 31.1803C67.2133 31.1936 67.226 31.2043 67.2409 31.2112C67.2558 31.218 67.2724 31.2208 67.2888 31.2191H67.9628C68.0056 31.2213 68.0481 31.2098 68.0835 31.1864C68.119 31.1629 68.1456 31.1289 68.1593 31.0894L68.4619 30.3703C68.4914 30.2997 68.5228 30.2902 68.5994 30.3131C68.862 30.382 69.1331 30.4153 69.405 30.4123C69.6753 30.4206 69.9454 30.3904 70.2067 30.3226C70.2794 30.3036 70.3207 30.2997 70.3502 30.3703L70.6645 31.1047C70.6782 31.1442 70.7048 31.1782 70.7403 31.2016C70.7758 31.225 70.8182 31.2365 70.861 31.2344H71.5586C71.5751 31.2364 71.592 31.234 71.6072 31.2273C71.6224 31.2206 71.6355 31.2099 71.6448 31.1965C71.6542 31.1831 71.6595 31.1674 71.6603 31.1512C71.661 31.1349 71.6571 31.1189 71.6489 31.1047L69.91 27.1525Z"
        fill="#00B050"
      />
      <path
        d="M11.0826 31.3221C11.7448 31.3221 12.2312 30.934 12.346 30.3218C12.3507 30.2971 12.3349 30.2733 12.3104 30.2672L12.1107 30.2175C12.0829 30.2106 12.0553 30.2292 12.0498 30.2574C11.9552 30.7436 11.5842 31.051 11.0826 31.051C10.4306 31.051 10.0143 30.6187 10.0107 29.9409C10.0107 29.2594 10.3938 28.827 11.0016 28.827C11.412 28.827 11.7273 29.0772 11.8201 29.48C11.8264 29.5072 11.8534 29.525 11.8805 29.5185L12.0754 29.4719C12.101 29.4658 12.1172 29.4403 12.1108 29.4147C11.9788 28.8881 11.5494 28.5559 11.0016 28.5559C10.2059 28.5559 9.7049 29.0945 9.7049 29.9409C9.7049 30.7835 10.2391 31.3221 11.0826 31.3221Z"
        fill="#00B050"
      />
      <path
        d="M13.5302 31.3038C14.1307 31.3038 14.5249 30.9081 14.5249 30.3072C14.5249 29.7027 14.1307 29.307 13.5302 29.307C12.9335 29.307 12.5393 29.7027 12.5393 30.3072C12.5393 30.9081 12.9335 31.3038 13.5302 31.3038ZM13.5302 31.051C13.0992 31.051 12.8193 30.7579 12.8193 30.3072C12.8193 29.8566 13.0992 29.5635 13.5302 29.5635C13.9612 29.5635 14.2412 29.8566 14.2412 30.3072C14.2412 30.7579 13.9612 31.051 13.5302 31.051Z"
        fill="#00B050"
      />
      <path
        d="M15.8165 29.307C15.4929 29.307 15.261 29.4312 15.1027 29.654C15.1022 29.6547 15.1014 29.6551 15.1005 29.6551C15.0992 29.6551 15.0981 29.6541 15.098 29.6527L15.0765 29.4243C15.0742 29.3994 15.0532 29.3803 15.0282 29.3803H14.8668C14.84 29.3803 14.8182 29.402 14.8182 29.4289V31.1819C14.8182 31.2088 14.84 31.2305 14.8668 31.2305H15.0496C15.0764 31.2305 15.0982 31.2088 15.0982 31.1819V30.1863C15.0982 29.809 15.3671 29.5488 15.7392 29.5488C16.0339 29.5488 16.2218 29.7503 16.2218 30.0654V31.1819C16.2218 31.2088 16.2435 31.2305 16.2704 31.2305H16.4568C16.4837 31.2305 16.5054 31.2088 16.5054 31.1819V30.0361C16.5054 29.5781 16.2439 29.307 15.8165 29.307Z"
        fill="#00B050"
      />
      <path
        d="M18.8122 31.3038C19.2075 31.3038 19.5429 31.1155 19.6799 30.8425C19.6919 30.8185 19.6798 30.79 19.6549 30.7798L19.4982 30.7161C19.4748 30.7066 19.4483 30.7166 19.4349 30.738C19.3214 30.9197 19.088 31.051 18.8159 31.051C18.4333 31.051 18.1443 30.8081 18.0829 30.4524C18.078 30.4239 18.1006 30.3988 18.1294 30.3988H19.5971C19.6221 30.3988 19.643 30.3799 19.6439 30.355C19.6448 30.3319 19.6448 30.309 19.6448 30.2889C19.6374 29.7174 19.2801 29.307 18.7349 29.307C18.1823 29.307 17.7844 29.7174 17.7844 30.2853C17.7844 30.8751 18.2191 31.3038 18.8122 31.3038ZM18.1354 30.1534C18.1057 30.1534 18.0829 30.127 18.0891 30.098C18.1581 29.7769 18.4034 29.5635 18.7312 29.5635C19.0538 29.5635 19.2863 29.7561 19.3397 30.1001C19.3441 30.1285 19.3215 30.1534 19.2928 30.1534H18.1354Z"
        fill="#00B050"
      />
      <path
        d="M19.9734 31.1819C19.9734 31.2088 19.9952 31.2305 20.022 31.2305H20.2048C20.2317 31.2305 20.2534 31.2088 20.2534 31.1819V28.5862C20.2534 28.5594 20.2317 28.5376 20.2048 28.5376H20.022C19.9952 28.5376 19.9734 28.5594 19.9734 28.5862V31.1819Z"
        fill="#00B050"
      />
      <path
        d="M22.4314 29.3033C22.1962 29.3033 21.9976 29.4456 21.8942 29.6683C21.8939 29.6692 21.893 29.6697 21.8921 29.6697C21.8909 29.6697 21.8898 29.6688 21.8897 29.6676L21.8681 29.4246C21.8658 29.3995 21.8448 29.3803 21.8197 29.3803H21.6733C21.6464 29.3803 21.6247 29.402 21.6247 29.4289V31.1819C21.6247 31.2088 21.6464 31.2305 21.6733 31.2305H21.8561C21.8829 31.2305 21.9047 31.2088 21.9047 31.1819V30.212C21.9047 29.809 22.0925 29.5635 22.3909 29.5635C22.5776 29.5635 22.7079 29.6816 22.7504 29.9036C22.7562 29.9339 22.7868 29.9537 22.8161 29.944L22.9655 29.8945C22.9871 29.8873 23.001 29.8661 22.9979 29.8436C22.9501 29.4977 22.737 29.3033 22.4314 29.3033Z"
        fill="#00B050"
      />
      <path
        d="M24.1797 31.3038C24.5749 31.3038 24.9104 31.1155 25.0473 30.8425C25.0594 30.8185 25.0473 30.79 25.0224 30.7798L24.8656 30.7161C24.8423 30.7066 24.8157 30.7166 24.8024 30.738C24.6888 30.9197 24.4554 31.051 24.1834 31.051C23.8007 31.051 23.5117 30.8081 23.4503 30.4524C23.4454 30.4239 23.468 30.3988 23.4969 30.3988H24.9646C24.9895 30.3988 25.0105 30.3799 25.0114 30.355C25.0122 30.3319 25.0122 30.309 25.0122 30.2889C25.0049 29.7174 24.6475 29.307 24.1023 29.307C23.5497 29.307 23.1519 29.7174 23.1519 30.2853C23.1519 30.8751 23.5866 31.3038 24.1797 31.3038ZM23.5028 30.1534C23.4732 30.1534 23.4504 30.127 23.4566 30.098C23.5256 29.7769 23.7709 29.5635 24.0986 29.5635C24.4213 29.5635 24.6538 29.7561 24.7071 30.1001C24.7115 30.1285 24.689 30.1534 24.6603 30.1534H23.5028Z"
        fill="#00B050"
      />
      <path
        d="M26.1108 31.3038C26.5602 31.3038 26.8992 31.0473 26.8992 30.6993C26.8992 30.4245 26.7113 30.2706 26.2729 30.179L25.9708 30.1204C25.713 30.0654 25.6024 29.9885 25.6024 29.8529C25.6061 29.6954 25.7793 29.5525 26.015 29.5525C26.2549 29.5525 26.4375 29.6694 26.4893 29.8353C26.4981 29.8634 26.5265 29.8827 26.5549 29.8749L26.7251 29.8286C26.7503 29.8217 26.7657 29.796 26.7578 29.7711C26.6703 29.4951 26.3893 29.307 26.0187 29.307C25.6209 29.307 25.3335 29.5452 25.3298 29.8676C25.3298 30.1387 25.4956 30.2926 25.8824 30.3732L26.1771 30.4318C26.4902 30.4941 26.6266 30.582 26.6266 30.7249C26.6266 30.9154 26.4018 31.051 26.1108 31.051C25.8029 31.051 25.5649 30.8962 25.5148 30.6686C25.5086 30.6404 25.4818 30.6199 25.4534 30.6256L25.2729 30.6615C25.2487 30.6663 25.2317 30.6887 25.2355 30.7131C25.2919 31.0829 25.6638 31.3038 26.1108 31.3038Z"
        fill="#00B050"
      />
      <path
        d="M27.1576 31.9513C27.1576 31.9782 27.1794 31.9999 27.2062 31.9999H27.389C27.4158 31.9999 27.4376 31.9782 27.4376 31.9513V30.9252C27.4376 30.9238 27.4387 30.9228 27.44 30.9228C27.4408 30.9228 27.4416 30.9232 27.442 30.9238C27.6041 31.1613 27.8543 31.3038 28.1633 31.3038C28.7048 31.3038 29.1064 30.8825 29.1064 30.3072C29.1064 29.7283 28.7048 29.307 28.1596 29.307C27.847 29.307 27.5931 29.4531 27.4347 29.6979C27.4342 29.6986 27.4334 29.699 27.4325 29.699C27.4312 29.699 27.4301 29.698 27.43 29.6967L27.4048 29.4244C27.4025 29.3994 27.3816 29.3803 27.3565 29.3803H27.2062C27.1794 29.3803 27.1576 29.402 27.1576 29.4289V31.9513ZM28.1265 31.0473C27.7249 31.0473 27.4302 30.7249 27.4302 30.3072C27.4302 29.8859 27.7249 29.5635 28.1265 29.5635C28.528 29.5635 28.8227 29.8786 28.8227 30.3072C28.8227 30.7249 28.5317 31.0473 28.1265 31.0473Z"
        fill="#00B050"
      />
      <path
        d="M30.0103 31.3038C30.3412 31.3038 30.5988 31.1578 30.7316 30.924C30.7321 30.9232 30.7329 30.9228 30.7338 30.9228C30.735 30.9228 30.7361 30.9237 30.7362 30.925L30.7613 31.1866C30.7637 31.2115 30.7846 31.2305 30.8096 31.2305H30.9711C30.9979 31.2305 31.0197 31.2088 31.0197 31.1819V29.9848C31.0197 29.5708 30.6844 29.307 30.2092 29.307C29.7457 29.307 29.3943 29.5707 29.3379 29.861C29.3338 29.8821 29.3461 29.9026 29.366 29.9109L29.524 29.9769C29.5547 29.9898 29.5893 29.9684 29.5982 29.9363C29.6526 29.7402 29.8837 29.5598 30.1982 29.5598C30.5223 29.5598 30.7434 29.71 30.7434 29.9409C30.7434 30.0215 30.6844 30.0728 30.5923 30.0837L30.1319 30.1387C29.5277 30.212 29.2919 30.4501 29.2919 30.7469C29.2919 31.0766 29.5867 31.3038 30.0103 31.3038ZM30.0582 31.051C29.7745 31.051 29.5719 30.9301 29.5719 30.7432C29.5719 30.5747 29.7119 30.4318 30.1613 30.3769L30.6816 30.3138C30.7105 30.3103 30.736 30.3329 30.736 30.3621V30.4391C30.736 30.7982 30.4487 31.051 30.0582 31.051Z"
        fill="#00B050"
      />
      <path
        d="M31.3703 31.1819C31.3703 31.2088 31.392 31.2305 31.4189 31.2305H31.6017C31.6285 31.2305 31.6503 31.2088 31.6503 31.1819V28.5862C31.6503 28.5594 31.6285 28.5376 31.6017 28.5376H31.4189C31.392 28.5376 31.3703 28.5594 31.3703 28.5862V31.1819Z"
        fill="#00B050"
      />
      <path
        d="M32.8909 31.3038C33.1999 31.3038 33.4574 31.1577 33.6159 30.9129C33.6163 30.9122 33.6171 30.9118 33.618 30.9118C33.6193 30.9118 33.6204 30.9128 33.6205 30.9141L33.6425 31.1859C33.6445 31.2111 33.6656 31.2305 33.6909 31.2305H33.8443C33.8712 31.2305 33.8929 31.2088 33.8929 31.1819V28.5862C33.8929 28.5594 33.8712 28.5376 33.8443 28.5376H33.6578C33.631 28.5376 33.6093 28.5594 33.6093 28.5862V29.6893C33.6093 29.6906 33.6082 29.6917 33.6069 29.6917C33.6061 29.6917 33.6053 29.6913 33.6049 29.6906C33.4464 29.4495 33.1962 29.307 32.8872 29.307C32.342 29.307 31.9442 29.7283 31.9442 30.3072C31.9442 30.8825 32.3457 31.3038 32.8909 31.3038ZM32.9241 31.051C32.5225 31.051 32.2241 30.7322 32.2241 30.3072C32.2241 29.8859 32.5188 29.5635 32.9241 29.5635C33.3256 29.5635 33.6203 29.8859 33.6203 30.3072C33.6203 30.7249 33.3256 31.051 32.9241 31.051Z"
        fill="#00B050"
      />
      <path
        d="M35.1799 31.3038C35.7804 31.3038 36.1746 30.9081 36.1746 30.3072C36.1746 29.7027 35.7804 29.307 35.1799 29.307C34.5832 29.307 34.189 29.7027 34.189 30.3072C34.189 30.9081 34.5832 31.3038 35.1799 31.3038ZM35.1799 31.051C34.7489 31.051 34.469 30.7579 34.469 30.3072C34.469 29.8566 34.7489 29.5635 35.1799 29.5635C35.611 29.5635 35.8909 29.8566 35.8909 30.3072C35.8909 30.7579 35.611 31.051 35.1799 31.051Z"
        fill="#00B050"
      />
      <path
        d="M38.3447 31.3038C38.6537 31.3038 38.9112 31.1577 39.0697 30.9129C39.0701 30.9122 39.0709 30.9118 39.0718 30.9118C39.0731 30.9118 39.0742 30.9128 39.0743 30.9141L39.0963 31.1859C39.0983 31.2111 39.1194 31.2305 39.1447 31.2305H39.2981C39.325 31.2305 39.3467 31.2088 39.3467 31.1819V28.5862C39.3467 28.5594 39.325 28.5376 39.2981 28.5376H39.1116C39.0848 28.5376 39.0631 28.5594 39.0631 28.5862V29.6893C39.0631 29.6906 39.062 29.6917 39.0607 29.6917C39.0599 29.6917 39.0591 29.6913 39.0587 29.6906C38.9002 29.4495 38.65 29.307 38.341 29.307C37.7958 29.307 37.398 29.7283 37.398 30.3072C37.398 30.8825 37.7995 31.3038 38.3447 31.3038ZM38.3779 31.051C37.9763 31.051 37.6779 30.7322 37.6779 30.3072C37.6779 29.8859 37.9726 29.5635 38.3779 29.5635C38.7794 29.5635 39.0741 29.8859 39.0741 30.3072C39.0741 30.7249 38.7794 31.051 38.3779 31.051Z"
        fill="#00B050"
      />
      <path
        d="M40.6706 31.3038C41.0658 31.3038 41.4013 31.1155 41.5382 30.8425C41.5503 30.8185 41.5382 30.79 41.5133 30.7798L41.3565 30.7161C41.3332 30.7066 41.3066 30.7166 41.2933 30.738C41.1797 30.9197 40.9463 31.051 40.6743 31.051C40.2916 31.051 40.0027 30.8081 39.9412 30.4524C39.9363 30.4239 39.959 30.3988 39.9878 30.3988H41.4555C41.4805 30.3988 41.5014 30.3799 41.5023 30.355C41.5031 30.3319 41.5031 30.309 41.5031 30.2889C41.4958 29.7174 41.1384 29.307 40.5932 29.307C40.0407 29.307 39.6428 29.7174 39.6428 30.2853C39.6428 30.8751 40.0775 31.3038 40.6706 31.3038ZM39.9937 30.1534C39.9641 30.1534 39.9413 30.127 39.9475 30.098C40.0165 29.7769 40.2618 29.5635 40.5895 29.5635C40.9122 29.5635 41.1447 29.7561 41.198 30.1001C41.2024 30.1285 41.1799 30.1534 41.1512 30.1534H39.9937Z"
        fill="#00B050"
      />
    </symbol>
    <symbol
      viewBox="0 0 12 6"
      fill="none"
      xmlns="http://www.w3.org/2000/svg"
      id="arrow-down"
    >
      <path
        d="M1 1L6 5L11 1"
        stroke="currentColor"
        stroke-width="1.8"
        stroke-linecap="round"
        stroke-linejoin="round"
      />
    </symbol>
    <symbol viewBox="0 0 92 40" id="logo-column">
      <path
        d="M7.8438 28.7929C7.97126 29.2872 8.417 29.6325 8.92741 29.6325H14.9497C15.4739 29.6325 15.9278 29.2687 16.0419 28.757L20.7145 7.8046C20.7197 7.78127 20.7404 7.76467 20.7643 7.76467C20.7883 7.76467 20.809 7.78136 20.8142 7.80478L25.4073 28.7531C25.5199 29.2666 25.9747 29.6325 26.5004 29.6325H32.5592C33.0702 29.6325 33.5163 29.2864 33.6432 28.7914L40.2819 2.90244C40.4634 2.19451 39.9287 1.5054 39.1979 1.5054H35.4694C34.9464 1.5054 34.4931 1.86764 34.3778 2.37778L29.5433 23.7692C29.5381 23.7925 29.5173 23.809 29.4934 23.809C29.4694 23.809 29.4487 23.7923 29.4435 23.7689L24.7283 2.38351C24.6152 1.87063 24.1606 1.5054 23.6354 1.5054H17.8934C17.3682 1.5054 16.9136 1.87063 16.8005 2.38351L12.0853 23.7688C12.0801 23.7923 12.0593 23.809 12.0353 23.809C12.0114 23.809 11.9907 23.7925 11.9854 23.7693L7.07137 2.37396C6.95462 1.86566 6.50223 1.5054 5.98069 1.5054H2.25098C1.51952 1.5054 0.984704 2.19563 1.16736 2.90392L7.8438 28.7929Z"
        fill="#5D59EF"
      />
      <path
        d="M51.9454 30.306C55.8578 30.306 59.1717 28.6029 60.63 25.7466C60.9023 25.2133 60.6026 24.5911 60.0433 24.377L57.94 23.5717C57.3664 23.3522 56.7344 23.6473 56.3884 24.1547C55.4513 25.5296 53.8643 26.3048 51.9454 26.3048C48.9911 26.3048 46.9348 24.5339 46.4492 21.6422C46.3948 21.3182 46.6547 21.0359 46.9832 21.0359H59.604C60.0943 21.0359 60.5183 20.7118 60.5562 20.223C60.5821 19.8902 60.5924 19.5123 60.5924 19.1344C60.5924 12.7959 56.8631 8.75507 51.0029 8.75507C44.9377 8.75507 41.0445 12.9147 41.0445 19.3325C41.0445 25.9879 45.3475 30.306 51.9454 30.306ZM47.6346 17.6686C46.9632 17.6686 46.4338 17.0772 46.6048 16.428C47.2126 14.121 48.6872 12.7562 51.0029 12.7562C53.3417 12.7562 54.8196 14.3167 55.1345 17.0808C55.1708 17.3993 54.9138 17.6686 54.5933 17.6686H47.6346Z"
        fill="#5D59EF"
      />
      <path
        d="M64.833 28.5135C64.833 29.1315 65.334 29.6325 65.952 29.6325H69.0824C69.7004 29.6325 70.2015 29.1315 70.2015 28.5135V1.436C70.2015 0.817952 69.7004 0.316926 69.0824 0.316926H65.952C65.334 0.316926 64.833 0.817952 64.833 1.436V28.5135Z"
        fill="#5D59EF"
      />
      <path
        d="M74.8781 28.5135C74.8781 29.1315 75.3791 29.6325 75.9972 29.6325H79.1275C79.7456 29.6325 80.2466 29.1315 80.2466 28.5135V1.436C80.2466 0.817952 79.7456 0.316926 79.1275 0.316926H75.9972C75.3791 0.316926 74.8781 0.817952 74.8781 1.436V28.5135Z"
        fill="#5D59EF"
      />
      <path
        d="M87.8329 6.29889C89.8409 6.29889 91.1933 5.03119 91.1933 3.12964C91.1933 1.2677 89.8409 0 87.8329 0C85.8658 0 84.5134 1.2677 84.5134 3.12964C84.5134 5.03119 85.8658 6.29889 87.8329 6.29889ZM85.1281 28.5135C85.1281 29.1315 85.6292 29.6325 86.2472 29.6325H89.3775C89.9956 29.6325 90.4966 29.1315 90.4966 28.5135V10.5476C90.4966 9.92956 89.9956 9.42853 89.3775 9.42853H86.2472C85.6292 9.42853 85.1281 9.92956 85.1281 10.5476V28.5135Z"
        fill="#5D59EF"
      />
      <path
        d="M54.5105 38.4136C55.9001 38.4136 56.7355 37.7088 56.7355 36.7265C56.7355 35.9242 56.2309 35.4593 55.1226 35.1969L54.3203 34.9944C53.7413 34.852 53.5015 34.642 53.5015 34.2896C53.5015 33.9072 53.8406 33.6148 54.3617 33.6148C54.845 33.6148 55.2147 33.9117 55.3024 34.3749C55.3185 34.4595 55.3969 34.5226 55.4815 34.5064L56.2968 34.3508C56.3676 34.3373 56.4175 34.2724 56.4066 34.2012C56.2729 33.3274 55.4839 32.76 54.3782 32.76C53.1127 32.76 52.3435 33.4273 52.3435 34.3871C52.3435 35.1819 52.815 35.6393 53.8902 35.9017L54.7008 36.1117C55.3128 36.2691 55.5692 36.4866 55.5692 36.824C55.5692 37.2364 55.1805 37.5513 54.5519 37.5513C53.881 37.5513 53.3577 37.1627 53.2604 36.5558C53.247 36.4719 53.171 36.4085 53.0872 36.4219L52.2456 36.5565C52.1743 36.5679 52.1224 36.6315 52.1307 36.7033C52.2516 37.7479 53.1822 38.4136 54.5105 38.4136Z"
        fill="#00B050"
      />
      <path
        d="M57.1367 38.0598C57.1038 38.1518 57.1721 38.2487 57.2698 38.2487H58.1915C58.2523 38.2487 58.3063 38.2097 58.3256 38.152L58.6302 37.2375C58.6505 37.1767 58.7125 37.1402 58.7754 37.152C59.3998 37.2691 60.0405 37.2691 60.6648 37.152C60.7278 37.1402 60.7898 37.1767 60.81 37.2375L61.1147 38.152C61.1339 38.2097 61.188 38.2487 61.2488 38.2487H62.1784C62.2762 38.2487 62.3445 38.1517 62.3114 38.0596L60.5023 33.0185C60.4821 32.9624 60.4289 32.9249 60.3692 32.9249H59.0712C59.0115 32.9249 58.9582 32.9625 58.9381 33.0187L57.1367 38.0598ZM58.9664 36.3273C58.9204 36.3162 58.8939 36.2679 58.9093 36.2231L59.7216 33.855C59.7232 33.8503 59.7276 33.8472 59.7325 33.8472C59.7375 33.8472 59.7419 33.8504 59.7434 33.8551L60.532 36.2235C60.5469 36.2682 60.5203 36.3161 60.4745 36.3272C59.9791 36.4466 59.4618 36.4468 58.9664 36.3273Z"
        fill="#00B050"
      />
      <path
        d="M63.12 38.1073C63.12 38.1854 63.1832 38.2487 63.2613 38.2487H64.12C64.1981 38.2487 64.2614 38.1854 64.2614 38.1073V34.2774C64.2614 34.2717 64.266 34.2671 64.2717 34.2671C64.2755 34.2671 64.279 34.2692 64.2808 34.2726L66.3472 38.1735C66.3717 38.2197 66.4198 38.2487 66.4721 38.2487H67.7593C67.8374 38.2487 67.9007 38.1854 67.9007 38.1073V33.0663C67.9007 32.9882 67.8374 32.9249 67.7593 32.9249H66.9006C66.8225 32.9249 66.7593 32.9882 66.7593 33.0663V36.9037C66.7593 36.9094 66.7547 36.914 66.749 36.914C66.7451 36.914 66.7416 36.9119 66.7398 36.9085L64.6816 33.0004C64.6572 32.954 64.609 32.9249 64.5565 32.9249H63.2613C63.1832 32.9249 63.12 32.9882 63.12 33.0663V38.1073Z"
        fill="#00B050"
      />
      <path
        d="M69.0325 38.1073C69.0325 38.1854 69.0958 38.2487 69.1739 38.2487H70.0326C70.1107 38.2487 70.174 38.1854 70.174 38.1073V34.2774C70.174 34.2717 70.1786 34.2671 70.1843 34.2671C70.1881 34.2671 70.1916 34.2692 70.1934 34.2726L72.2598 38.1735C72.2843 38.2197 72.3324 38.2487 72.3847 38.2487H73.6719C73.75 38.2487 73.8133 38.1854 73.8133 38.1073V33.0663C73.8133 32.9882 73.75 32.9249 73.6719 32.9249H72.8132C72.7351 32.9249 72.6718 32.9882 72.6718 33.0663V36.9037C72.6718 36.9094 72.6672 36.914 72.6615 36.914C72.6577 36.914 72.6542 36.9119 72.6524 36.9085L70.5942 33.0004C70.5697 32.954 70.5216 32.9249 70.4691 32.9249H69.1739C69.0958 32.9249 69.0325 32.9882 69.0325 33.0663V38.1073Z"
        fill="#00B050"
      />
      <path
        d="M74.6321 38.0598C74.5993 38.1518 74.6675 38.2487 74.7652 38.2487H75.6869C75.7477 38.2487 75.8018 38.2097 75.821 38.152L76.1232 37.2448C76.1449 37.1796 76.211 37.14 76.2787 37.1515C76.8988 37.2573 77.5323 37.2573 78.1524 37.1515C78.2201 37.14 78.2862 37.1796 78.3079 37.2448L78.6101 38.152C78.6294 38.2097 78.6834 38.2487 78.7442 38.2487H79.6738C79.7717 38.2487 79.8399 38.1517 79.8069 38.0596L77.9977 33.0185C77.9775 32.9624 77.9243 32.9249 77.8646 32.9249H76.5666C76.5069 32.9249 76.4536 32.9625 76.4335 33.0187L74.6321 38.0598ZM76.4709 36.3275C76.4203 36.3164 76.3908 36.2637 76.4075 36.2147L77.217 33.855C77.2186 33.8503 77.223 33.8472 77.2279 33.8472C77.2329 33.8472 77.2373 33.8504 77.2389 33.8551L78.0246 36.2152C78.0409 36.2641 78.0112 36.3163 77.9609 36.3274C77.4703 36.4353 76.9615 36.4354 76.4709 36.3275Z"
        fill="#00B050"
      />
      <path
        d="M10.3865 38.3762C11.226 38.3762 11.8493 37.8986 12.0224 37.1393C12.0387 37.0679 11.9923 36.9986 11.9212 36.981L11.8126 36.954C11.7317 36.9339 11.6517 36.9881 11.6312 37.069C11.4827 37.6555 11.0124 38.0221 10.3865 38.0221C9.53469 38.0221 8.9909 37.4573 8.98609 36.5719C8.98609 35.6816 9.48657 35.1169 10.2806 35.1169C10.7891 35.1169 11.1859 35.4108 11.3289 35.8901C11.3521 35.968 11.43 36.0199 11.509 36.001L11.6095 35.9769C11.684 35.9591 11.7314 35.8848 11.7095 35.8113C11.5167 35.166 10.9704 34.7627 10.2806 34.7627C9.24114 34.7627 8.58667 35.4663 8.58667 36.5719C8.58667 37.6727 9.28445 38.3762 10.3865 38.3762Z"
        fill="#00B050"
      />
      <path
        d="M13.5838 38.3523C14.3682 38.3523 14.8832 37.8354 14.8832 37.0505C14.8832 36.2608 14.3682 35.7438 13.5838 35.7438C12.8042 35.7438 12.2893 36.2608 12.2893 37.0505C12.2893 37.8354 12.8042 38.3523 13.5838 38.3523ZM13.5838 38.0221C13.0208 38.0221 12.6551 37.6392 12.6551 37.0505C12.6551 36.4618 13.0208 36.0789 13.5838 36.0789C14.1469 36.0789 14.5126 36.4618 14.5126 37.0505C14.5126 37.6392 14.1469 38.0221 13.5838 38.0221Z"
        fill="#00B050"
      />
      <path
        d="M16.5705 35.7438C16.1477 35.7438 15.8448 35.906 15.6379 36.1971C15.6373 36.198 15.6363 36.1985 15.6352 36.1985C15.6334 36.1985 15.632 36.1972 15.6318 36.1955L15.6105 35.9677C15.6036 35.8951 15.5427 35.8396 15.4697 35.8396H15.4077C15.3297 35.8396 15.2664 35.9029 15.2664 35.9809V38.1152C15.2664 38.1933 15.3297 38.2566 15.4077 38.2566H15.4908C15.5688 38.2566 15.6321 38.1933 15.6321 38.1152V36.8925C15.6321 36.3996 15.9834 36.0597 16.4695 36.0597C16.8544 36.0597 17.0999 36.323 17.0999 36.7346V38.1152C17.0999 38.1933 17.1632 38.2566 17.2412 38.2566H17.3291C17.4071 38.2566 17.4704 38.1933 17.4704 38.1152V36.6963C17.4704 36.098 17.1287 35.7438 16.5705 35.7438Z"
        fill="#00B050"
      />
      <path
        d="M20.4839 38.3523C20.9666 38.3523 21.3811 38.1373 21.5792 37.8178C21.6204 37.7513 21.5848 37.6679 21.5124 37.6384L21.4461 37.6114C21.3781 37.5838 21.3013 37.6137 21.2565 37.6717C21.0972 37.8783 20.8141 38.0221 20.4887 38.0221C20.0197 38.0221 19.6585 37.7428 19.5494 37.3246C19.5282 37.2434 19.5945 37.1701 19.6784 37.1701H21.4388C21.5114 37.1701 21.5713 37.115 21.5714 37.0424C21.5714 37.037 21.5714 37.0317 21.5714 37.0265C21.5618 36.2799 21.095 35.7438 20.3828 35.7438C19.661 35.7438 19.1412 36.2799 19.1412 37.0218C19.1412 37.7923 19.7091 38.3523 20.4839 38.3523ZM19.6898 36.8494C19.6036 36.8494 19.5366 36.7724 19.5619 36.6899C19.6755 36.3194 19.9802 36.0789 20.378 36.0789C20.7724 36.0789 21.0636 36.2991 21.1566 36.6957C21.1756 36.7769 21.1093 36.8494 21.0258 36.8494H19.6898Z"
        fill="#00B050"
      />
      <path
        d="M22.0008 38.1152C22.0008 38.1933 22.0641 38.2566 22.1421 38.2566H22.2252C22.3033 38.2566 22.3665 38.1933 22.3665 38.1152V34.8801C22.3665 34.802 22.3033 34.7388 22.2252 34.7388H22.1421C22.0641 34.7388 22.0008 34.802 22.0008 34.8801V38.1152Z"
        fill="#00B050"
      />
      <path
        d="M25.2118 35.7391C24.9044 35.7391 24.645 35.925 24.51 36.2159C24.5095 36.217 24.5084 36.2177 24.5072 36.2177C24.5056 36.2177 24.5043 36.2165 24.5041 36.2149L24.4822 35.9684C24.4757 35.8955 24.4146 35.8396 24.3414 35.8396H24.2992C24.2212 35.8396 24.1579 35.9029 24.1579 35.9809V38.1152C24.1579 38.1933 24.2212 38.2566 24.2992 38.2566H24.3823C24.4603 38.2566 24.5236 38.1933 24.5236 38.1152V36.926C24.5236 36.3996 24.769 36.0789 25.1588 36.0789C25.3751 36.0789 25.5335 36.2003 25.6053 36.4301C25.632 36.5158 25.7202 36.574 25.8054 36.5458L25.8503 36.5309C25.9131 36.5101 25.954 36.4482 25.9416 36.3832C25.8632 35.9699 25.5925 35.7391 25.2118 35.7391Z"
        fill="#00B050"
      />
      <path
        d="M27.4956 38.3523C27.9783 38.3523 28.3928 38.1373 28.5909 37.8178C28.6321 37.7513 28.5965 37.6679 28.5241 37.6384L28.4577 37.6114C28.3898 37.5838 28.313 37.6137 28.2682 37.6717C28.1089 37.8783 27.8258 38.0221 27.5004 38.0221C27.0314 38.0221 26.6702 37.7428 26.561 37.3246C26.5399 37.2434 26.6062 37.1701 26.6901 37.1701H28.4505C28.5231 37.1701 28.583 37.115 28.5831 37.0424C28.5831 37.037 28.5831 37.0317 28.5831 37.0265C28.5735 36.2799 28.1067 35.7438 27.3945 35.7438C26.6726 35.7438 26.1529 36.2799 26.1529 37.0218C26.1529 37.7923 26.7208 38.3523 27.4956 38.3523ZM26.7015 36.8494C26.6153 36.8494 26.5483 36.7724 26.5736 36.6899C26.6871 36.3194 26.9919 36.0789 27.3897 36.0789C27.784 36.0789 28.0753 36.2991 28.1683 36.6957C28.1873 36.7769 28.121 36.8494 28.0375 36.8494H26.7015Z"
        fill="#00B050"
      />
      <path
        d="M30.0183 38.3523C30.6054 38.3523 31.0481 38.0173 31.0481 37.5626C31.0481 37.2036 30.8027 37.0026 30.23 36.883L29.8354 36.8064C29.4985 36.7346 29.3542 36.6341 29.3542 36.457C29.359 36.2512 29.5851 36.0645 29.8931 36.0645C30.1655 36.0645 30.3813 36.1798 30.4776 36.3523C30.5193 36.4271 30.6018 36.4848 30.6843 36.4623L30.7483 36.4449C30.8216 36.4249 30.8672 36.3497 30.8374 36.2798C30.6999 35.958 30.3499 35.7438 29.8979 35.7438C29.3782 35.7438 29.0029 36.0549 28.998 36.4761C28.998 36.8303 29.2146 37.0313 29.7199 37.1366L30.1049 37.2132C30.5139 37.2946 30.692 37.4094 30.692 37.5961C30.692 37.845 30.3984 38.0221 30.0183 38.0221C29.6547 38.0221 29.3658 37.8568 29.2652 37.6056C29.234 37.5274 29.1568 37.4669 29.0742 37.4833L28.9919 37.4997C28.9214 37.5137 28.8712 37.579 28.8882 37.6489C28.9954 38.0908 29.4623 38.3523 30.0183 38.3523Z"
        fill="#00B050"
      />
      <path
        d="M31.3857 39.1203C31.3857 39.1984 31.449 39.2617 31.5271 39.2617H31.6101C31.6882 39.2617 31.7515 39.1984 31.7515 39.1203V37.8577C31.7515 37.856 31.7529 37.8545 31.7546 37.8545C31.7557 37.8545 31.7566 37.8551 31.7572 37.8559C31.969 38.1662 32.2959 38.3523 32.6995 38.3523C33.4069 38.3523 33.9315 37.8019 33.9315 37.0505C33.9315 36.2943 33.4069 35.7438 32.6947 35.7438C32.2863 35.7438 31.9546 35.9347 31.7476 36.2544C31.747 36.2554 31.746 36.256 31.7449 36.256C31.7432 36.256 31.7417 36.2547 31.7416 36.253L31.7152 35.9679C31.7085 35.8952 31.6475 35.8396 31.5745 35.8396H31.5271C31.449 35.8396 31.3857 35.9029 31.3857 35.9809V39.1203ZM32.6514 38.0173C32.1268 38.0173 31.7419 37.5961 31.7419 37.0505C31.7419 36.5001 32.1268 36.0789 32.6514 36.0789C33.1759 36.0789 33.5609 36.4905 33.5609 37.0505C33.5609 37.5961 33.1807 38.0173 32.6514 38.0173Z"
        fill="#00B050"
      />
      <path
        d="M35.1123 38.3523C35.5446 38.3523 35.881 38.1615 36.0546 37.8562C36.0551 37.8552 36.0562 37.8545 36.0574 37.8545C36.059 37.8545 36.0604 37.8558 36.0606 37.8575L36.0866 38.1287C36.0935 38.2012 36.1544 38.2566 36.2273 38.2566H36.2895C36.3676 38.2566 36.4308 38.1933 36.4308 38.1152V36.6293C36.4308 36.0885 35.9929 35.7438 35.3721 35.7438C34.7968 35.7438 34.3537 36.0548 34.2478 36.4111C34.2299 36.4711 34.2665 36.531 34.3243 36.5552L34.3765 36.577C34.4659 36.6144 34.5691 36.5507 34.6144 36.4651C34.7274 36.2511 35.0017 36.0741 35.3577 36.0741C35.7812 36.0741 36.0699 36.2703 36.0699 36.5719C36.0699 36.6771 35.9929 36.7442 35.8726 36.7585L35.2711 36.8303C34.4819 36.926 34.1739 37.2371 34.1739 37.6248C34.1739 38.0556 34.5589 38.3523 35.1123 38.3523ZM35.1748 38.0221C34.8043 38.0221 34.5396 37.8641 34.5396 37.62C34.5396 37.3999 34.7225 37.2132 35.3096 37.1414L35.902 37.0696C35.9861 37.0595 36.0603 37.1252 36.0603 37.21V37.2228C36.0603 37.6918 35.6849 38.0221 35.1748 38.0221Z"
        fill="#00B050"
      />
      <path
        d="M36.8889 38.1152C36.8889 38.1933 36.9522 38.2566 37.0302 38.2566H37.1133C37.1913 38.2566 37.2546 38.1933 37.2546 38.1152V34.8801C37.2546 34.802 37.1913 34.7388 37.1133 34.7388H37.0302C36.9522 34.7388 36.8889 34.802 36.8889 34.8801V38.1152Z"
        fill="#00B050"
      />
      <path
        d="M38.8753 38.3523C39.2789 38.3523 39.6154 38.1615 39.8224 37.8417C39.823 37.8408 39.824 37.8402 39.8251 37.8402C39.8268 37.8402 39.8283 37.8415 39.8284 37.8432L39.8513 38.1266C39.8573 38.2 39.9186 38.2566 39.9922 38.2566H40.0429C40.121 38.2566 40.1843 38.1933 40.1843 38.1152V34.8801C40.1843 34.802 40.121 34.7388 40.0429 34.7388H39.9551C39.877 34.7388 39.8137 34.802 39.8137 34.8801V36.2433C39.8137 36.245 39.8123 36.2464 39.8106 36.2464C39.8095 36.2464 39.8085 36.2459 39.808 36.245C39.601 35.9299 39.2741 35.7438 38.8705 35.7438C38.1583 35.7438 37.6385 36.2943 37.6385 37.0505C37.6385 37.8019 38.1631 38.3523 38.8753 38.3523ZM38.9186 38.0221C38.3941 38.0221 38.0043 37.6057 38.0043 37.0505C38.0043 36.5001 38.3893 36.0789 38.9186 36.0789C39.4432 36.0789 39.8281 36.5001 39.8281 37.0505C39.8281 37.5961 39.4432 38.0221 38.9186 38.0221Z"
        fill="#00B050"
      />
      <path
        d="M41.8656 38.3523C42.65 38.3523 43.1649 37.8354 43.1649 37.0505C43.1649 36.2608 42.65 35.7438 41.8656 35.7438C41.086 35.7438 40.571 36.2608 40.571 37.0505C40.571 37.8354 41.086 38.3523 41.8656 38.3523ZM41.8656 38.0221C41.3025 38.0221 40.9368 37.6392 40.9368 37.0505C40.9368 36.4618 41.3025 36.0789 41.8656 36.0789C42.4286 36.0789 42.7943 36.4618 42.7943 37.0505C42.7943 37.6392 42.4286 38.0221 41.8656 38.0221Z"
        fill="#00B050"
      />
      <path
        d="M45.9998 38.3523C46.4034 38.3523 46.7398 38.1615 46.9468 37.8417C46.9474 37.8408 46.9485 37.8402 46.9496 37.8402C46.9513 37.8402 46.9527 37.8415 46.9529 37.8432L46.9758 38.1266C46.9817 38.2 47.043 38.2566 47.1167 38.2566H47.1674C47.2455 38.2566 47.3087 38.1933 47.3087 38.1152V34.8801C47.3087 34.802 47.2455 34.7388 47.1674 34.7388H47.0795C47.0015 34.7388 46.9382 34.802 46.9382 34.8801V36.2433C46.9382 36.245 46.9368 36.2464 46.9351 36.2464C46.934 36.2464 46.933 36.2459 46.9324 36.245C46.7255 35.9299 46.3986 35.7438 45.995 35.7438C45.2828 35.7438 44.763 36.2943 44.763 37.0505C44.763 37.8019 45.2876 38.3523 45.9998 38.3523ZM46.0431 38.0221C45.5186 38.0221 45.1288 37.6057 45.1288 37.0505C45.1288 36.5001 45.5137 36.0789 46.0431 36.0789C46.5676 36.0789 46.9526 36.5001 46.9526 37.0505C46.9526 37.5961 46.5676 38.0221 46.0431 38.0221Z"
        fill="#00B050"
      />
      <path
        d="M49.0382 38.3523C49.5209 38.3523 49.9354 38.1373 50.1335 37.8178C50.1747 37.7513 50.1391 37.6679 50.0667 37.6384L50.0004 37.6114C49.9324 37.5838 49.8556 37.6137 49.8108 37.6717C49.6515 37.8783 49.3684 38.0221 49.043 38.0221C48.574 38.0221 48.2128 37.7428 48.1036 37.3246C48.0825 37.2434 48.1488 37.1701 48.2327 37.1701H49.9931C50.0657 37.1701 50.1256 37.115 50.1257 37.0424C50.1257 37.037 50.1257 37.0317 50.1257 37.0265C50.1161 36.2799 49.6493 35.7438 48.9371 35.7438C48.2153 35.7438 47.6955 36.2799 47.6955 37.0218C47.6955 37.7923 48.2634 38.3523 49.0382 38.3523ZM48.2441 36.8494C48.1579 36.8494 48.0909 36.7724 48.1162 36.6899C48.2297 36.3194 48.5345 36.0789 48.9323 36.0789C49.3266 36.0789 49.6179 36.2991 49.7109 36.6957C49.7299 36.7769 49.6636 36.8494 49.5801 36.8494H48.2441Z"
        fill="#00B050"
      />
      <path
        d="M87.7772 34.257H86.6294C86.3454 34.257 86.31 34.2216 86.31 33.9376V32.7889C86.3096 32.6313 86.2468 32.4802 86.1353 32.3689C86.0238 32.2575 85.8727 32.1948 85.715 32.1946H84.2434C84.0859 32.1948 83.935 32.2575 83.8237 32.3689C83.7124 32.4804 83.6499 32.6314 83.6499 32.7889V34.4724C83.6562 34.6093 83.7094 34.7399 83.8005 34.8422L85.6435 36.6846C85.6852 36.7276 85.7087 36.7851 85.709 36.8451V38.0608C85.709 38.3455 85.6736 38.3817 85.3897 38.3817H84.568C84.2833 38.3817 84.2479 38.3455 84.2479 38.0608V36.9136C84.2479 36.8355 84.2325 36.7582 84.2026 36.686C84.1727 36.6139 84.1288 36.5483 84.0736 36.4931C84.0183 36.4379 83.9527 36.3942 83.8805 36.3643C83.8084 36.3345 83.731 36.3192 83.6529 36.3193H82.5058C82.2219 36.3193 82.1858 36.2832 82.1858 35.9984V35.1744C82.1858 34.8814 82.2091 34.855 82.4629 34.855H82.7792C82.8216 34.8602 82.8646 34.8564 82.9053 34.8438C82.9461 34.8311 82.9837 34.81 83.0157 34.7817C83.0476 34.7534 83.0732 34.7187 83.0907 34.6798C83.1083 34.6409 83.1173 34.5987 83.1173 34.556C83.1173 34.5133 83.1083 34.4711 83.0907 34.4322C83.0732 34.3933 83.0476 34.3586 83.0157 34.3303C82.9837 34.302 82.9461 34.2809 82.9053 34.2682C82.8646 34.2556 82.8216 34.2517 82.7792 34.257H82.1827C82.0251 34.257 81.874 34.3196 81.7626 34.431C81.6511 34.5425 81.5885 34.6936 81.5885 34.8513V36.3223C81.5885 36.48 81.6511 36.6311 81.7626 36.7426C81.874 36.854 82.0251 36.9166 82.1827 36.9166H83.3306C83.6145 36.9166 83.6506 36.952 83.6506 37.2368V38.3839C83.6506 38.5414 83.713 38.6924 83.8241 38.8039C83.9352 38.9154 84.086 38.9784 84.2434 38.979H85.7143C85.872 38.9786 86.0231 38.9158 86.1346 38.8043C86.2461 38.6928 86.3089 38.5416 86.3093 38.3839V36.7426C86.314 36.6701 86.3025 36.5973 86.2757 36.5297C86.2488 36.4621 86.2073 36.4013 86.1541 36.3517L84.3119 34.5085C84.2712 34.4641 84.2483 34.4061 84.2479 34.3458V33.1324C84.2479 32.9908 84.2396 32.926 84.2976 32.8605C84.3556 32.7949 84.4272 32.7927 84.568 32.7927H85.3919C85.5516 32.7927 85.6073 32.8077 85.6578 32.8597C85.7083 32.9117 85.712 33.0043 85.712 33.1324V34.2622C85.712 34.4199 85.7746 34.5712 85.886 34.6827C85.9975 34.7943 86.1486 34.8571 86.3063 34.8573H87.4541C87.7388 34.8573 87.7742 34.8927 87.7742 35.1767V35.9984C87.7742 36.2824 87.7478 36.314 87.5271 36.3193H87.1807C87.1047 36.3191 87.0314 36.3476 86.9755 36.3992C86.9196 36.4507 86.8853 36.5215 86.8794 36.5973V36.647C86.8861 36.7217 86.921 36.791 86.9769 36.841C87.0329 36.8909 87.1057 36.9177 87.1807 36.9159H87.7787C87.9362 36.9157 88.0873 36.853 88.1987 36.7416C88.3101 36.6302 88.3727 36.4791 88.3729 36.3216V34.8513C88.3727 34.6937 88.3101 34.5427 88.1987 34.4313C88.0873 34.3198 87.9362 34.2572 87.7787 34.257"
        fill="#00B050"
      />
    </symbol>
    <symbol viewBox="0 0 32 33" id="location">
      <ellipse
        cx="17.5199"
        cy="24.4844"
        rx="11.7649"
        ry="5.67272"
        transform="rotate(-3.04584 17.5199 24.4844)"
        fill="#E9EEFF"
      />
      <path
        d="M14.5982 26.0405C13.6332 25.1285 5.1145 17.0336 5.1145 11.0151C5.1145 8.41052 6.22646 5.91264 8.20575 4.07094C10.185 2.22924 12.8695 1.19458 15.6687 1.19458C18.4678 1.19458 21.1523 2.22924 23.1316 4.07094C25.1109 5.91264 26.2229 8.41052 26.2229 11.0151C26.2229 17.0336 17.7041 25.1285 16.7392 26.0405C16.599 26.1719 16.4323 26.2763 16.2485 26.3475C16.0648 26.4188 15.8677 26.4554 15.6687 26.4554C15.4697 26.4554 15.2726 26.4188 15.0889 26.3475C14.9051 26.2763 14.7384 26.1719 14.5982 26.0405ZM15.6687 4.00044C13.6693 4.00044 11.7518 4.73948 10.338 6.05498C8.92424 7.37048 8.12999 9.15468 8.12999 11.0151C8.12999 14.6206 12.8794 20.1762 15.6687 23.0101C18.458 20.2043 23.2074 14.5926 23.2074 11.0151C23.2074 9.15468 22.4132 7.37048 20.9994 6.05498C19.5856 4.73948 17.6681 4.00044 15.6687 4.00044Z"
        fill="#5752D0"
      />
      <path
        d="M15.4956 16.0742C14.6059 16.0742 13.7361 15.8103 12.9963 15.316C12.2566 14.8217 11.68 14.1192 11.3395 13.2972C10.999 12.4752 10.9099 11.5707 11.0835 10.698C11.2571 9.82542 11.6855 9.02386 12.3147 8.39473C12.9438 7.7656 13.7453 7.33716 14.618 7.16359C15.4906 6.99001 16.3951 7.0791 17.2171 7.41958C18.0391 7.76006 18.7417 8.33665 19.236 9.07642C19.7303 9.8162 19.9941 10.6859 19.9941 11.5757C19.9941 12.7687 19.5201 13.9129 18.6765 14.7566C17.8329 15.6002 16.6887 16.0742 15.4956 16.0742ZM15.4956 10.0762C15.199 10.0762 14.9091 10.1641 14.6625 10.3289C14.4159 10.4936 14.2237 10.7278 14.1102 11.0018C13.9967 11.2758 13.967 11.5773 14.0249 11.8682C14.0827 12.1591 14.2256 12.4263 14.4353 12.636C14.645 12.8457 14.9122 12.9885 15.203 13.0463C15.4939 13.1042 15.7954 13.0745 16.0694 12.961C16.3434 12.8475 16.5776 12.6553 16.7424 12.4087C16.9071 12.1621 16.9951 11.8722 16.9951 11.5757C16.9951 11.178 16.8371 10.7966 16.5559 10.5154C16.2747 10.2341 15.8933 10.0762 15.4956 10.0762Z"
        fill="#5752D0"
      />
      <path
        d="M5.59885 20.1946C2.44233 21.7799 -1.52916 25.7998 7.83711 29.1968C12.4284 30.3292 22.3165 31.7447 29.0145 25.6299C29.3589 25.1203 30.9084 22.9122 25.7432 20.1946"
        stroke="#A5A3DB"
        stroke-width="2"
        stroke-linecap="round"
        stroke-dasharray="4 4"
      />
    </symbol>
    <symbol viewBox="0 0 16 12" fill="none" id="eye-close">
      <path
        d="M13.8334 11.3333L3.41671 0.666672M6.75004 4.89179C6.49072 5.18454 6.33337 5.5691 6.33337 5.99027C6.33337 6.90745 7.07957 7.65097 8.00004 7.65097C8.42445 7.65097 8.8118 7.4929 9.10605 7.23263M13.8603 7.65097C14.2105 7.11411 14.4337 6.63769 14.5544 6.34795C14.6332 6.15867 14.6356 5.95079 14.5601 5.76014C14.1379 4.694 12.3872 1.09334 8.00004 1.09334C7.71094 1.09334 7.43329 1.10897 7.16671 1.13849M11.75 9.80406C10.7935 10.4289 9.56208 10.8708 8.00004 10.8446C3.69287 10.7725 1.89944 7.38617 1.45138 6.35134C1.36846 6.15985 1.36572 5.94706 1.44277 5.75314C1.71705 5.06285 2.53805 3.33721 4.25004 2.19081"
        stroke="currentColor"
        stroke-linecap="round"
      />
    </symbol>
    <svg
      viewBox="0 0 8 8"
      fill="none"
      xmlns="http://www.w3.org/2000/svg"
      id="check"
    >
      <path
        d="M0.833496 4.33331L3.00377 6.50359C3.08983 6.58965 3.23216 6.57953 3.30519 6.48216L7.16683 1.33331"
        stroke="currentColor"
        stroke-linecap="round"
      />
    </svg>
    <symbol
      viewBox="0 0 16 14"
      fill="none"
      xmlns="http://www.w3.org/2000/svg"
      id="warning"
    >
      <path
        d="M15.6805 10.5372L10.0989 1.16597C9.87318 0.80852 9.56222 0.514348 9.19467 0.310578C8.82712 0.106809 8.41482 0 7.99576 0C7.57671 0 7.16441 0.106809 6.79686 0.310578C6.42931 0.514348 6.11835 0.80852 5.89265 1.16597L0.311032 10.5372C0.113858 10.87 0.00669041 11.2494 0.000303227 11.6374C-0.00608396 12.0254 0.0885344 12.4082 0.274645 12.7474C0.489817 13.1292 0.801268 13.4464 1.17717 13.6664C1.55306 13.8865 1.97993 14.0015 2.41414 13.9999H13.5774C14.0087 14.0045 14.4337 13.8939 14.8093 13.6792C15.185 13.4645 15.498 13.1532 15.7169 12.7769C15.9085 12.4341 16.0061 12.0458 15.9997 11.652C15.9933 11.2583 15.8831 10.8734 15.6805 10.5372ZM7.99576 11.0529C7.85184 11.0529 7.71114 11.0097 7.59146 10.9288C7.47179 10.8478 7.37852 10.7327 7.32344 10.5981C7.26836 10.4635 7.25395 10.3154 7.28203 10.1725C7.31011 10.0296 7.37942 9.89828 7.48119 9.79525C7.58296 9.69221 7.71263 9.62204 7.85379 9.59362C7.99496 9.56519 8.14128 9.57978 8.27425 9.63554C8.40723 9.6913 8.52088 9.78573 8.60084 9.90689C8.68081 10.028 8.72349 10.1705 8.72349 10.3162C8.72349 10.5116 8.64682 10.699 8.51034 10.8371C8.37387 10.9753 8.18877 11.0529 7.99576 11.0529ZM8.72349 8.106C8.72349 8.30139 8.64682 8.48878 8.51034 8.62694C8.37387 8.76511 8.18877 8.84273 7.99576 8.84273C7.80276 8.84273 7.61766 8.76511 7.48119 8.62694C7.34471 8.48878 7.26804 8.30139 7.26804 8.106V5.15906C7.26804 4.96367 7.34471 4.77628 7.48119 4.63811C7.61766 4.49995 7.80276 4.42233 7.99576 4.42233C8.18877 4.42233 8.37387 4.49995 8.51034 4.63811C8.64682 4.77628 8.72349 4.96367 8.72349 5.15906V8.106Z"
        fill="currentColor"
      />
    </symbol>
    <symbol
      viewBox="0 0 32 32"
      fill="none"
      xmlns="http://www.w3.org/2000/svg"
      id="doble-arrow"
    >
      <path
        d="M16.0078 8.00167C16.1744 8.00134 16.3359 8.05947 16.4642 8.16595L20.7424 11.7374C20.888 11.8586 20.9796 12.0328 20.997 12.2217C21.0144 12.4106 20.9561 12.5987 20.8351 12.7445C20.7141 12.8904 20.5402 12.9821 20.3516 12.9995C20.1631 13.017 19.9753 12.9586 19.8297 12.8374L16.0078 9.63738L12.186 12.7231C12.113 12.7824 12.0291 12.8267 11.939 12.8535C11.8489 12.8802 11.7545 12.8889 11.661 12.8789C11.5676 12.8689 11.4771 12.8406 11.3946 12.7955C11.3122 12.7503 11.2394 12.6893 11.1806 12.616C11.1153 12.5425 11.0658 12.4563 11.0353 12.3629C11.0048 12.2694 10.9939 12.1706 11.0033 12.0727C11.0126 11.9748 11.0421 11.8799 11.0898 11.7939C11.1375 11.7079 11.2024 11.6328 11.2804 11.5731L15.5586 8.1231C15.6906 8.03344 15.8488 7.99069 16.0078 8.00167V8.00167Z"
        fill="currentColor"
      />
      <path
        d="M15.9922 24.0035C15.8256 24.0038 15.6641 23.9457 15.5358 23.8392L11.2576 20.2677C11.112 20.1465 11.0204 19.9723 11.003 19.7834C10.9856 19.5945 11.0439 19.4065 11.1649 19.2606C11.2859 19.1147 11.4598 19.023 11.6484 19.0056C11.8369 18.9882 12.0247 19.0465 12.1703 19.1677L15.9922 22.3677L19.814 19.282C19.887 19.2227 19.9709 19.1784 20.061 19.1517C20.1511 19.1249 20.2455 19.1163 20.339 19.1262C20.4324 19.1362 20.5229 19.1645 20.6054 19.2097C20.6878 19.2548 20.7606 19.3158 20.8194 19.3892C20.8847 19.4626 20.9342 19.5488 20.9647 19.6423C20.9952 19.7357 21.0061 19.8345 20.9967 19.9324C20.9874 20.0303 20.9579 20.1252 20.9102 20.2112C20.8625 20.2972 20.7976 20.3724 20.7196 20.432L16.4414 23.882C16.3094 23.9717 16.1512 24.0144 15.9922 24.0035V24.0035Z"
        fill="currentColor"
      />
    </symbol>
    <symbol
      viewBox="0 0 24 24"
      fill="none"
      xmlns="http://www.w3.org/2000/svg"
      id="filter"
    >
      <path
        d="M6.54799 17.9421C6.58423 18.3267 6.62048 18.7147 6.66397 19.0992C6.69658 19.3912 6.48276 19.6547 6.18196 19.6903C5.88478 19.7223 5.61659 19.5122 5.58035 19.2167C5.53686 18.7824 5.48975 18.3445 5.4535 17.9101C4.73955 17.6573 4.2068 17.0307 4.10895 16.2724C4.10895 16.2652 4.10533 16.2546 4.10533 16.2474C4.06184 15.717 4.0256 15.1794 4.00023 14.6524C4.00023 14.6489 4.00023 14.6417 4.00023 14.6382C3.99298 14.2003 4.15969 13.7837 4.47499 13.474C4.67432 13.2746 4.92801 13.1286 5.19982 13.0467C5.18169 10.3195 5.31216 7.54606 5.58397 4.79751C5.61297 4.5198 5.84854 4.31687 6.12397 4.31687C6.14209 4.31687 6.16021 4.31687 6.17833 4.32043C6.47551 4.34891 6.69658 4.60881 6.66759 4.90432C6.39578 7.61371 6.26893 10.3587 6.28706 13.0539C7.00101 13.2888 7.52289 13.9261 7.57362 14.6951C7.57362 14.7023 7.57362 14.7094 7.57362 14.713C7.58812 15.2506 7.61349 15.7953 7.64248 16.3364C7.64248 16.34 7.64248 16.34 7.64248 16.3436C7.6606 16.8135 7.4794 17.2657 7.14235 17.5826C6.97202 17.7499 6.76907 17.8709 6.54799 17.9421ZM6.49001 14.7557C6.46101 14.3605 6.13484 14.0507 5.73256 14.0294C5.54773 14.0294 5.37015 14.1006 5.24693 14.2216C5.17082 14.2964 5.08384 14.421 5.08747 14.6097C5.11284 15.1188 5.14545 15.6351 5.18894 16.1442C5.25055 16.5572 5.59485 16.8919 6.01887 16.9524C6.20008 16.9631 6.3233 16.8847 6.39216 16.8171C6.5045 16.7103 6.56611 16.5536 6.56249 16.3899C6.52987 15.8451 6.5045 15.2968 6.49001 14.7557Z"
        fill="currentColor"
      />
      <path
        d="M12.3358 11.5728C12.3358 14.2003 12.3394 16.8527 12.3466 19.466C12.3466 19.7615 12.1038 20 11.803 20C11.5022 20 11.2594 19.7615 11.2594 19.466C11.2521 16.8527 11.2485 14.2003 11.2485 11.5728C10.5309 11.3413 10.0091 10.6827 9.99094 9.89942C9.99094 9.89586 9.99094 9.88874 9.99094 9.88518C9.99456 9.32977 9.99818 8.76369 10.0054 8.20472C10.0054 8.20116 10.0054 8.19404 10.0054 8.19048C10.0381 7.41789 10.5527 6.7628 11.2521 6.52426C11.2521 5.86204 11.2558 5.19626 11.2558 4.53405C11.2558 4.23854 11.4986 4 11.7994 4C12.1002 4 12.343 4.2421 12.343 4.53405C12.3394 5.19626 12.3394 5.85848 12.3394 6.52069C13.0352 6.75924 13.5498 7.41077 13.5788 8.18692C13.5788 8.19048 13.5788 8.1976 13.5788 8.20116C13.5861 8.75656 13.5897 9.32265 13.5897 9.88518C13.5897 9.88874 13.5897 9.89586 13.5897 9.89942C13.5752 10.6827 13.057 11.3413 12.3358 11.5728ZM12.4952 8.21896C12.4771 7.85937 12.2198 7.56386 11.8864 7.50334C11.8574 7.5069 11.8284 7.51046 11.7994 7.51046C11.7704 7.51046 11.7414 7.5069 11.716 7.50334C11.3754 7.56386 11.118 7.85581 11.0999 8.22608C11.0927 8.77793 11.089 9.33333 11.0854 9.88162C11.0963 10.2376 11.3609 10.526 11.7052 10.583C11.7341 10.5794 11.7668 10.5759 11.7958 10.5759C11.8284 10.5759 11.8574 10.5794 11.8864 10.583C12.2343 10.526 12.4988 10.2341 12.5097 9.87806C12.5061 9.32621 12.4988 8.76725 12.4952 8.21896Z"
        fill="currentColor"
      />
      <path
        d="M19.9826 13.3707C19.9826 13.3779 19.9826 13.385 19.9826 13.3957C19.9247 14.1469 19.3919 14.7771 18.6743 15.012C18.5982 16.4041 18.4895 17.8176 18.3518 19.2168C18.3192 19.5123 18.0546 19.7259 17.7538 19.6974C17.4566 19.6689 17.2356 19.4055 17.2645 19.1135C17.4023 17.7535 17.5074 16.3792 17.5798 15.0263C17.3334 14.948 17.1051 14.8162 16.913 14.6347C16.576 14.3142 16.3875 13.8799 16.3839 13.417C16.3839 13.4135 16.3839 13.4064 16.3839 13.4028C16.3948 12.8652 16.3984 12.3169 16.3948 11.7793C16.3948 11.7757 16.3948 11.7686 16.3948 11.7651C16.4129 10.996 16.9203 10.3659 17.6197 10.1451C17.5545 8.40769 17.4349 6.64178 17.2609 4.89367C17.2319 4.60172 17.4494 4.33826 17.7502 4.30978C17.7683 4.30978 17.7864 4.30622 17.8045 4.30622C18.08 4.30622 18.3192 4.51271 18.3445 4.78686C18.5221 6.57413 18.6453 8.37564 18.7106 10.1487C19.4354 10.3765 19.9573 11.0031 19.9971 11.7615C19.9971 11.7686 19.9971 11.7757 19.9971 11.7829C20.0044 12.3062 19.9971 12.8403 19.9826 13.3707ZM18.9135 11.7971C18.8918 11.4339 18.5729 11.1456 18.1742 11.1206C17.8009 11.1242 17.5001 11.409 17.4892 11.7757C17.4929 12.3169 17.4892 12.8652 17.4784 13.4064C17.482 13.5808 17.5509 13.741 17.6741 13.8585C17.7937 13.9724 17.9531 14.033 18.1198 14.033C18.1235 14.033 18.1235 14.033 18.1271 14.033C18.5366 13.9974 18.8628 13.6947 18.899 13.3173C18.9099 12.8189 18.9172 12.3062 18.9135 11.7971Z"
        fill="currentColor"
      />
    </symbol>
    <symbol
      viewBox="0 0 32 32"
      fill="none"
      xmlns="http://www.w3.org/2000/svg"
      id="trash"
    >
      <path
        d="M8 11.5758H10.6667M24 11.5758H21.3333M10.6667 11.5758V24.1667C10.6667 24.4428 10.8905 24.6667 11.1667 24.6667H20.8333C21.1095 24.6667 21.3333 24.4428 21.3333 24.1667V11.5758M10.6667 11.5758H12M21.3333 11.5758H20M12 11.5758V8.5C12 8.22386 12.2239 8 12.5 8H19.5C19.7761 8 20 8.22386 20 8.5V11.5758M12 11.5758H20"
        stroke="currentColor"
        stroke-width="1.5"
      />
    </symbol>
    <symbol
      viewBox="0 0 16 14"
      fill="none"
      xmlns="http://www.w3.org/2000/svg"
      id="warning"
    >
      <path
        d="M15.6805 10.5372L10.0989 1.16597C9.87318 0.80852 9.56222 0.514348 9.19467 0.310578C8.82712 0.106809 8.41482 0 7.99576 0C7.57671 0 7.16441 0.106809 6.79686 0.310578C6.42931 0.514348 6.11835 0.80852 5.89265 1.16597L0.311032 10.5372C0.113858 10.87 0.00669041 11.2494 0.000303227 11.6374C-0.00608396 12.0254 0.0885344 12.4082 0.274645 12.7474C0.489817 13.1292 0.801268 13.4464 1.17717 13.6664C1.55306 13.8865 1.97993 14.0015 2.41414 13.9999H13.5774C14.0087 14.0045 14.4337 13.8939 14.8093 13.6792C15.185 13.4645 15.498 13.1532 15.7169 12.7769C15.9085 12.4341 16.0061 12.0458 15.9997 11.652C15.9933 11.2583 15.8831 10.8734 15.6805 10.5372ZM7.99576 11.0529C7.85184 11.0529 7.71114 11.0097 7.59146 10.9288C7.47179 10.8478 7.37852 10.7327 7.32344 10.5981C7.26836 10.4635 7.25395 10.3154 7.28203 10.1725C7.31011 10.0296 7.37942 9.89828 7.48119 9.79525C7.58296 9.69221 7.71263 9.62204 7.85379 9.59362C7.99496 9.56519 8.14128 9.57978 8.27425 9.63554C8.40723 9.6913 8.52088 9.78573 8.60084 9.90689C8.68081 10.028 8.72349 10.1705 8.72349 10.3162C8.72349 10.5116 8.64682 10.699 8.51034 10.8371C8.37387 10.9753 8.18877 11.0529 7.99576 11.0529ZM8.72349 8.106C8.72349 8.30139 8.64682 8.48878 8.51034 8.62694C8.37387 8.76511 8.18877 8.84273 7.99576 8.84273C7.80276 8.84273 7.61766 8.76511 7.48119 8.62694C7.34471 8.48878 7.26804 8.30139 7.26804 8.106V5.15906C7.26804 4.96367 7.34471 4.77628 7.48119 4.63811C7.61766 4.49995 7.80276 4.42233 7.99576 4.42233C8.18877 4.42233 8.37387 4.49995 8.51034 4.63811C8.64682 4.77628 8.72349 4.96367 8.72349 5.15906V8.106Z"
        fill="currentColor"
      />
    </symbol>
    <symbol
      viewBox="0 0 32 32"
      fill="none"
      xmlns="http://www.w3.org/2000/svg"
      id="arrow-left"
    >
      <path
        d="M19.6923 9.53847L12.7377 15.6237C12.5101 15.8229 12.5101 16.1771 12.7377 16.3763L19.6923 22.4615"
        stroke="currentColor"
        stroke-width="1.5"
        stroke-ecap="round"
      />
    </symbol>
    <symbol
      viewBox="0 0 32 32"
      fill="none"
      xmlns="http://www.w3.org/2000/svg"
      id="arrow-right"
    >
      <path
        d="M12.3077 22.4615L19.2622 16.3763C19.4899 16.1771 19.4899 15.8229 19.2622 15.6237L12.3077 9.53845"
        stroke="currentColor"
        stroke-width="1.5"
        stroke-linecap="round"
      />
    </symbol>
    <symbol
      viewBox="0 0 16 16"
      fill="none"
      xmlns="http://www.w3.org/2000/svg"
      id="icon-check"
    >
      <path
        d="M14.6666 8.00016C14.6666 11.6821 11.6818 14.6668 7.99992 14.6668C4.31802 14.6668 1.33325 11.6821 1.33325 8.00016C1.33325 4.31826 4.31802 1.3335 7.99992 1.3335C11.6818 1.3335 14.6666 4.31826 14.6666 8.00016Z"
        fill="#00C72C"
      />
      <path
        d="M10.2969 5.49289C10.4121 5.38951 10.5654 5.33236 10.7244 5.3335C10.8835 5.33463 11.0359 5.39396 11.1494 5.49897C11.2629 5.60398 11.3287 5.74645 11.3329 5.89632C11.3371 6.04619 11.2794 6.19175 11.1719 6.30226L7.90887 10.1487C7.85276 10.2057 7.78504 10.2514 7.70976 10.2831C7.63448 10.3148 7.55318 10.3319 7.47073 10.3334C7.38828 10.3348 7.30636 10.3206 7.22989 10.2915C7.15341 10.2624 7.08394 10.2191 7.02563 10.1641L4.86171 8.12451C4.80145 8.07158 4.75311 8.00775 4.71959 7.93684C4.68606 7.86592 4.66804 7.78937 4.66658 7.71174C4.66513 7.63412 4.68028 7.55701 4.71113 7.48503C4.74198 7.41304 4.78789 7.34765 4.84614 7.29275C4.90438 7.23785 4.97376 7.19457 5.05013 7.1655C5.12651 7.13642 5.20831 7.12214 5.29067 7.12351C5.37302 7.12488 5.45424 7.14187 5.52948 7.17347C5.60472 7.20507 5.67243 7.25062 5.72859 7.30743L7.44108 8.92077L10.2813 5.50985C10.2864 5.50391 10.2919 5.49825 10.2977 5.49289H10.2969Z"
        fill="white"
      />
    </symbol>
    <symbol
      viewBox="0 0 16 17"
      fill="none"
      xmlns="http://www.w3.org/2000/svg"
      id="icon-edit"
    >
      <path
        d="M1 15.5L15 15.5M1 10.4142V11.9C1 11.9552 1.04477 12 1.1 12H3.10153C3.35739 12 3.60353 11.9019 3.78927 11.726L12.2542 3.70658C12.6628 3.31947 12.6715 2.67153 12.2735 2.27352L11.2071 1.20711C10.8166 0.816583 10.1834 0.816583 9.79289 1.20711L1.29289 9.70711C1.10536 9.89464 1 10.149 1 10.4142Z"
        stroke="currentColor"
        stroke-width="1.5"
        stroke-linecap="round"
      />
    </symbol>
    <symbol viewBox="0 0 13 18" fill="none" id="map-location">
      <path
        d="M9.1525 13.7405C10.9075 11.4167 13 8.22069 13 6.18943C13 4.54789 12.3481 2.97359 11.1877 1.81284C10.0273 0.652099 8.45353 0 6.8125 0C5.17147 0 3.59766 0.652099 2.43728 1.81284C1.2769 2.97359 0.625 4.54789 0.625 6.18943C0.625 8.6427 3.67937 12.8009 5.50187 15.0572C5.66009 15.2523 5.85985 15.4097 6.08659 15.5178C6.31333 15.6258 6.56133 15.6819 6.8125 15.6819C7.06367 15.6819 7.31167 15.6258 7.53841 15.5178C7.76515 15.4097 7.96491 15.2523 8.12313 15.0572L8.37063 14.7477C10.0581 14.9897 10.75 15.5467 10.75 15.7549C10.75 16.0813 9.37187 16.8803 6.8125 16.8803C4.25312 16.8803 2.875 16.0813 2.875 15.7549C2.875 15.7043 2.9425 15.5692 3.19 15.4004C3.25722 15.3619 3.31576 15.3099 3.36195 15.2477C3.40814 15.1855 3.44099 15.1144 3.45843 15.0389C3.47587 14.9634 3.47753 14.8851 3.46331 14.8089C3.44909 14.7327 3.41929 14.6603 3.37578 14.5962C3.33227 14.5321 3.27599 14.4776 3.21046 14.4363C3.14494 14.395 3.07158 14.3676 2.99499 14.3559C2.9184 14.3443 2.84023 14.3486 2.76538 14.3686C2.69053 14.3885 2.62061 14.4238 2.56 14.472C2.32621 14.5983 2.12888 14.7826 1.98701 15.0073C1.84514 15.232 1.76351 15.4895 1.75 15.7549C1.75 18.7427 11.875 18.754 11.875 15.7549C11.875 14.8321 10.8512 14.095 9.1525 13.7405ZM6.37937 14.3482C3.47687 10.7584 1.75 7.70866 1.75 6.18943C1.75 4.84636 2.28337 3.55829 3.23277 2.60859C4.18217 1.65889 5.46984 1.12535 6.8125 1.12535C8.15516 1.12535 9.44282 1.65889 10.3922 2.60859C11.3416 3.55829 11.875 4.84636 11.875 6.18943C11.875 7.70866 10.1481 10.7584 7.24563 14.3482C7.19284 14.412 7.12666 14.4632 7.0518 14.4984C6.97693 14.5336 6.89522 14.5519 6.8125 14.5519C6.72978 14.5519 6.64807 14.5336 6.5732 14.4984C6.49834 14.4632 6.43216 14.412 6.37937 14.3482Z"
        fill="#434343"
      />
      <path
        d="M9.97374 5.75064L7.16124 3.49994C7.06193 3.42144 6.93906 3.37874 6.81249 3.37874C6.68592 3.37874 6.56305 3.42144 6.46374 3.49994L5.68749 4.11888V3.37615C5.68749 3.22692 5.62823 3.0838 5.52274 2.97828C5.41725 2.87276 5.27417 2.81348 5.12499 2.81348C4.97581 2.81348 4.83273 2.87276 4.72724 2.97828C4.62175 3.0838 4.56249 3.22692 4.56249 3.37615V5.01917L3.65124 5.75064C3.54876 5.84741 3.48633 5.97912 3.47628 6.11973C3.46624 6.26034 3.50933 6.39959 3.59702 6.50994C3.6847 6.62029 3.81061 6.6937 3.94981 6.71564C4.08901 6.73758 4.23138 6.70645 4.34874 6.62842L4.56249 6.45961V8.44023C4.56249 8.58946 4.62175 8.73258 4.72724 8.83811C4.83273 8.94363 4.97581 9.00291 5.12499 9.00291H8.49999C8.64917 9.00291 8.79225 8.94363 8.89774 8.83811C9.00323 8.73258 9.06249 8.58946 9.06249 8.44023V6.45961L9.27624 6.62842C9.37521 6.70785 9.49811 6.75147 9.62499 6.75221C9.7412 6.75154 9.85436 6.71488 9.9489 6.64726C10.0434 6.57965 10.1147 6.48441 10.1529 6.37462C10.1912 6.26484 10.1945 6.1459 10.1624 6.03417C10.1303 5.92244 10.0644 5.82339 9.97374 5.75064ZM7.93749 5.62686V7.87756H5.68749V5.55933L6.81249 4.65905C8.12874 5.71126 7.93749 5.5312 7.93749 5.62686Z"
        fill="#5D59EF"
      />
    </symbol>
    <symbol viewBox="0 0 16 16" fill="none" id="document">
      <path
        d="M9.16732 2.66663V4.79996C9.16732 5.08286 9.29023 5.35417 9.50903 5.55421C9.72782 5.75425 10.0246 5.86663 10.334 5.86663H12.6673M3.33398 3.73329V12.2666C3.33398 12.5495 3.4569 12.8208 3.67569 13.0209C3.89449 13.2209 4.19123 13.3333 4.50065 13.3333H11.5007C11.8101 13.3333 12.1068 13.2209 12.3256 13.0209C12.5444 12.8208 12.6673 12.5495 12.6673 12.2666V6.04903C12.6673 5.90692 12.6362 5.76626 12.5759 5.63529C12.5156 5.50432 12.4273 5.38569 12.3162 5.28636L9.72615 2.97063C9.5082 2.77578 9.21548 2.66666 8.91065 2.66663H4.50065C4.19123 2.66663 3.89449 2.77901 3.67569 2.97905C3.4569 3.17908 3.33398 3.4504 3.33398 3.73329Z"
        stroke="#5D59EF"
        stroke-linejoin="round"
      />
    </symbol>
  </defs>
</svg>
